<svg id="Layer_1" data-name="Layer 1" xmlns="http://www.w3.org/2000/svg" viewBox="0 0 179.79 41.44"><defs><style>.cls-1{fill:#fff;}</style></defs><title>home-affairs</title><path class="cls-1" d="M62.36,20.58a1.78,1.78,0,0,1-.67-.13.45.45,0,0,1-.24-.42,1.53,1.53,0,0,1,.14-.55l.29-.67h2.43l.37.85.15.38a.68.68,0,0,1,0,.19.27.27,0,0,1-.11.23,1,1,0,0,1-.56.12h-.14v.18h3.33v-.18a.78.78,0,0,1-.49-.19,3.47,3.47,0,0,1-.59-1l-2.48-5.63h-.09l-2.46,5.48a3.91,3.91,0,0,1-.59,1,1,1,0,0,1-.61.31v.18h2.29Zm.76-4.52,1,2.37H62.06Z"/><path class="cls-1" d="M68.32,17.05v1.88a4.23,4.23,0,0,0,.11,1.15,1.18,1.18,0,0,0,.42.58,1.14,1.14,0,0,0,.71.25,1.61,1.61,0,0,0,.76-.19,2.39,2.39,0,0,0,.68-.59v.63h1.93v-.18a.58.58,0,0,1-.41-.17,1.36,1.36,0,0,1-.1-.68V16H70.49v.19a.66.66,0,0,1,.41.17,1.31,1.31,0,0,1,.1.67v2.54a2,2,0,0,1-.49.53.61.61,0,0,1-.33.1.41.41,0,0,1-.24-.08.44.44,0,0,1-.15-.22,2.83,2.83,0,0,1-.05-.66V16H67.81v.19a.63.63,0,0,1,.41.17A1.31,1.31,0,0,1,68.32,17.05Z"/><path class="cls-1" d="M75,19.05a5,5,0,0,1,.68.54.64.64,0,0,1,.15.42.49.49,0,0,1-.16.37.56.56,0,0,1-.39.14,1.23,1.23,0,0,1-.76-.33,2.23,2.23,0,0,1-.62-1h-.18l.08,1.7H74c.08-.17.17-.25.28-.25a.59.59,0,0,1,.21.05,2.86,2.86,0,0,0,.91.22,1.53,1.53,0,0,0,.79-.21,1.36,1.36,0,0,0,.56-.58,1.68,1.68,0,0,0,.2-.78,1.39,1.39,0,0,0-.24-.79,3.55,3.55,0,0,0-1-.85,5.51,5.51,0,0,1-.91-.71.5.5,0,0,1-.1-.27.42.42,0,0,1,.15-.32.52.52,0,0,1,.35-.14,1.09,1.09,0,0,1,.66.26,2.55,2.55,0,0,1,.65,1h.17l-.08-1.62h-.17a1,1,0,0,1-.18.22.26.26,0,0,1-.14,0,.49.49,0,0,1-.23-.07,1.54,1.54,0,0,0-.74-.19,1.36,1.36,0,0,0-1.09.44,1.47,1.47,0,0,0-.38,1,1.42,1.42,0,0,0,.33.91A5.25,5.25,0,0,0,75,19.05Z"/><path class="cls-1" d="M78.12,19.08a5.28,5.28,0,0,0,0,.94,1.2,1.2,0,0,0,1.16.81,1.37,1.37,0,0,0,1.33-1l-.15-.12c-.19.34-.4.51-.62.51a.34.34,0,0,1-.18-.08.36.36,0,0,1-.13-.19,2,2,0,0,1,0-.53V16.52h1.12V16H79.54V14.29h-.17a5.52,5.52,0,0,1-.78,1.11,6.94,6.94,0,0,1-1.09,1v.17h.62Z"/><path class="cls-1" d="M83.71,20.58a1.12,1.12,0,0,1-.41-.08.44.44,0,0,1-.18-.2,1.31,1.31,0,0,1,0-.37V18.56a3.41,3.41,0,0,1,.17-1.09,1.06,1.06,0,0,1,.31-.49.45.45,0,0,1,.28-.11.27.27,0,0,1,.12,0l.23.19a.67.67,0,0,0,.47.18.52.52,0,0,0,.39-.19.78.78,0,0,0,.17-.53.68.68,0,0,0-.17-.49.6.6,0,0,0-.46-.18,1.22,1.22,0,0,0-.68.24,3.53,3.53,0,0,0-.83,1V16H81.15v.19a1,1,0,0,1,.34.09.37.37,0,0,1,.14.21,1.85,1.85,0,0,1,0,.52v2.62a1.46,1.46,0,0,1-.11.76.54.54,0,0,1-.41.17v.18h2.56Z"/><path class="cls-1" d="M86.31,18.92a1.31,1.31,0,0,0-.47,1,.88.88,0,0,0,.27.66.9.9,0,0,0,.67.27,2.56,2.56,0,0,0,1.56-.76.91.91,0,0,0,.28.57.93.93,0,0,0,.63.19,1.18,1.18,0,0,0,.62-.17,1.63,1.63,0,0,0,.52-.55L90.24,20c-.09.13-.18.19-.27.19a.15.15,0,0,1-.11,0,.25.25,0,0,1-.08-.12,1.7,1.7,0,0,1,0-.41V17.77a4.75,4.75,0,0,0-.06-1,1.38,1.38,0,0,0-.51-.62,1.81,1.81,0,0,0-1.07-.29,3.31,3.31,0,0,0-1.08.18,1.84,1.84,0,0,0-.8.51,1,1,0,0,0-.29.7.6.6,0,0,0,.21.45.83.83,0,0,0,.54.19.65.65,0,0,0,.48-.18.52.52,0,0,0,.19-.42.71.71,0,0,0-.19-.42.42.42,0,0,1-.15-.26.27.27,0,0,1,.13-.22,1,1,0,0,1,.55-.14.65.65,0,0,1,.36.1.55.55,0,0,1,.22.24,2.3,2.3,0,0,1,.06.68v.48A8.86,8.86,0,0,0,86.31,18.92Zm2,.77a1,1,0,0,1-.59.29.45.45,0,0,1-.35-.14.58.58,0,0,1-.17-.41.93.93,0,0,1,.2-.55,2.86,2.86,0,0,1,.91-.77Z"/><path class="cls-1" d="M93.35,20.58a.64.64,0,0,1-.46-.16,1.1,1.1,0,0,1-.12-.64V13.89h-2v.19a.63.63,0,0,1,.45.15,1.15,1.15,0,0,1,.11.64v4.91a1.14,1.14,0,0,1-.1.62.65.65,0,0,1-.46.18v.18h2.56Z"/><path class="cls-1" d="M94.94,15.29a.79.79,0,0,0,.79-.78A.76.76,0,0,0,95.5,14a.78.78,0,0,0-1.11,0,.76.76,0,0,0-.23.55.75.75,0,0,0,.23.55A.73.73,0,0,0,94.94,15.29Z"/><path class="cls-1" d="M96.22,20.58a.63.63,0,0,1-.45-.16,1.1,1.1,0,0,1-.12-.64V16h-2v.19a.63.63,0,0,1,.45.16,1.12,1.12,0,0,1,.11.64v2.77a1.14,1.14,0,0,1-.1.62.61.61,0,0,1-.46.18v.18h2.55Z"/><path class="cls-1" d="M97.27,18.92a1.31,1.31,0,0,0-.47,1,.88.88,0,0,0,.27.66.93.93,0,0,0,.68.27,2.51,2.51,0,0,0,1.55-.76.91.91,0,0,0,.28.57,1,1,0,0,0,.64.19,1.14,1.14,0,0,0,.61-.17,1.75,1.75,0,0,0,.53-.55l-.15-.12c-.1.13-.19.19-.27.19a.16.16,0,0,1-.12,0,.36.36,0,0,1-.08-.12,3,3,0,0,1,0-.41V17.77a3.91,3.91,0,0,0-.07-1,1.38,1.38,0,0,0-.51-.62,1.81,1.81,0,0,0-1.07-.29,3.21,3.21,0,0,0-1.07.18,1.82,1.82,0,0,0-.81.51,1.06,1.06,0,0,0-.29.7.58.58,0,0,0,.22.45.8.8,0,0,0,.53.19.65.65,0,0,0,.48-.18.52.52,0,0,0,.19-.42.71.71,0,0,0-.19-.42.39.39,0,0,1-.14-.26.25.25,0,0,1,.13-.22,1,1,0,0,1,.54-.14.69.69,0,0,1,.37.1.62.62,0,0,1,.22.24,2.92,2.92,0,0,1,0,.68v.48A8.86,8.86,0,0,0,97.27,18.92Zm2,.77a1,1,0,0,1-.59.29.47.47,0,0,1-.35-.14.58.58,0,0,1-.17-.41.93.93,0,0,1,.2-.55,2.86,2.86,0,0,1,.91-.77Z"/><path class="cls-1" d="M104.28,20.58a.49.49,0,0,1-.37-.18,1.52,1.52,0,0,1-.09-.67V17.19c.25-.42.52-.62.81-.62a.37.37,0,0,1,.24.08.42.42,0,0,1,.15.24,3.29,3.29,0,0,1,0,.73v2.11a1.58,1.58,0,0,1-.08.63.51.51,0,0,1-.39.22v.18H107v-.18a.54.54,0,0,1-.41-.17,1.36,1.36,0,0,1-.1-.68V17.88a5.29,5.29,0,0,0-.08-1.11,1.26,1.26,0,0,0-.41-.63,1.15,1.15,0,0,0-.76-.26,1.48,1.48,0,0,0-.72.18,2.66,2.66,0,0,0-.7.57V16h-1.94v.19a.69.69,0,0,1,.42.17,1.44,1.44,0,0,1,.1.67v2.68a1.4,1.4,0,0,1-.09.66.58.58,0,0,1-.43.19v.18h2.4Z"/><path class="cls-1" d="M111.45,20a4.11,4.11,0,0,0,1.14.7,4.24,4.24,0,0,0,1.63.27,7,7,0,0,0,1.47-.15,6.55,6.55,0,0,0,1.38-.45V18.9a1.48,1.48,0,0,1,0-.47.49.49,0,0,1,.23-.26,1.4,1.4,0,0,1,.53-.1v-.19h-3.34v.19h.18a.93.93,0,0,1,.42.09.49.49,0,0,1,.23.22,1.39,1.39,0,0,1,.06.52v1.43a4.08,4.08,0,0,1-.54.16,2.94,2.94,0,0,1-.51.05,2.19,2.19,0,0,1-1.23-.35,1.91,1.91,0,0,1-.75-1.1,5.6,5.6,0,0,1-.24-1.73,6.09,6.09,0,0,1,.21-1.59,2.41,2.41,0,0,1,.73-1.21,1.91,1.91,0,0,1,1.28-.43,2.42,2.42,0,0,1,1.49.51,3.15,3.15,0,0,1,1,1.52h.19V13.73h-.19a.9.9,0,0,1-.23.39.38.38,0,0,1-.26.11,3.56,3.56,0,0,1-.59-.19,3.66,3.66,0,0,0-.72-.23,4.42,4.42,0,0,0-.93-.08,3.73,3.73,0,0,0-2.74,1.07,3.54,3.54,0,0,0-1.09,2.62,3.35,3.35,0,0,0,.36,1.56A3.12,3.12,0,0,0,111.45,20Z"/><path class="cls-1" d="M120.58,20.9a2,2,0,0,0,1.71-.82,2.71,2.71,0,0,0,.51-1.68,2.9,2.9,0,0,0-.28-1.29,2,2,0,0,0-.81-.91,2.22,2.22,0,0,0-1.15-.32,2,2,0,0,0-1.62.76,2.83,2.83,0,0,0-.59,1.78,2.74,2.74,0,0,0,.58,1.73A2,2,0,0,0,120.58,20.9Zm-.68-3.69a1.3,1.3,0,0,1,.24-.77.55.55,0,0,1,.44-.2.54.54,0,0,1,.35.11.86.86,0,0,1,.28.47,4.41,4.41,0,0,1,.1,1.18,12.72,12.72,0,0,1-.1,1.95.88.88,0,0,1-.27.48.57.57,0,0,1-.79-.06,1,1,0,0,1-.24-.55,6.41,6.41,0,0,1-.07-1C119.84,18.12,119.86,17.59,119.9,17.21Z"/><path class="cls-1" d="M124.06,17.23l1.6,3.68h.24l1.58-3.73a2.93,2.93,0,0,1,.43-.8.61.61,0,0,1,.36-.17V16h-1.55v.19a.64.64,0,0,1,.4.11.31.31,0,0,1,.12.26,3,3,0,0,1-.27.93L126.35,19l-.79-1.77a2.22,2.22,0,0,1-.22-.71.34.34,0,0,1,.12-.26.47.47,0,0,1,.33-.09V16h-2.52v.19a.59.59,0,0,1,.34.18A3.54,3.54,0,0,1,124.06,17.23Z"/><path class="cls-1" d="M130.79,20.91a1.78,1.78,0,0,0,1.08-.33,2.85,2.85,0,0,0,.86-1.11l-.17-.11A2.25,2.25,0,0,1,132,20a1,1,0,0,1-.55.16,1,1,0,0,1-.84-.42,2.46,2.46,0,0,1-.5-1.49h2.6a2.75,2.75,0,0,0-.57-1.75,1.64,1.64,0,0,0-1.25-.59,2,2,0,0,0-1.51.7,2.74,2.74,0,0,0-.64,1.89,2.84,2.84,0,0,0,.44,1.62A1.78,1.78,0,0,0,130.79,20.91Zm-.69-3.2a2.21,2.21,0,0,1,.3-1.24.5.5,0,0,1,.43-.26.46.46,0,0,1,.29.09,1,1,0,0,1,.27.46,4.67,4.67,0,0,1,.09,1.12H130.1Z"/><path class="cls-1" d="M135.91,20.58a1.06,1.06,0,0,1-.4-.08.39.39,0,0,1-.18-.2,1.18,1.18,0,0,1,0-.37V18.56a3.42,3.42,0,0,1,.16-1.09,1.15,1.15,0,0,1,.31-.49.47.47,0,0,1,.28-.11.21.21,0,0,1,.12,0l.23.19a.69.69,0,0,0,.47.18.53.53,0,0,0,.4-.19.78.78,0,0,0,.16-.53.64.64,0,0,0-.17-.49.58.58,0,0,0-.45-.18,1.2,1.2,0,0,0-.68.24,3.37,3.37,0,0,0-.83,1V16h-1.94v.19a.89.89,0,0,1,.34.09.44.44,0,0,1,.15.21,1.85,1.85,0,0,1,0,.52v2.62a1.58,1.58,0,0,1-.11.76.55.55,0,0,1-.42.17v.18h2.56Z"/><path class="cls-1" d="M140.33,20.58a.45.45,0,0,1-.36-.18,1.34,1.34,0,0,1-.1-.67V17.19c.25-.42.52-.62.81-.62a.35.35,0,0,1,.24.08.42.42,0,0,1,.15.24,3.29,3.29,0,0,1,.05.73v2.11a1.58,1.58,0,0,1-.08.63.51.51,0,0,1-.39.22v.18h2.4v-.18a.54.54,0,0,1-.41-.17,1.36,1.36,0,0,1-.1-.68V17.88a5.29,5.29,0,0,0-.08-1.11,1.26,1.26,0,0,0-.41-.63,1.15,1.15,0,0,0-.76-.26,1.48,1.48,0,0,0-.72.18,2.66,2.66,0,0,0-.7.57V16h-1.93v.19a.68.68,0,0,1,.41.17,1.44,1.44,0,0,1,.1.67v2.68a1.4,1.4,0,0,1-.09.66.57.57,0,0,1-.42.19v.18h2.39Z"/><path class="cls-1" d="M146.18,20.58a.52.52,0,0,1-.41-.19,1.54,1.54,0,0,1-.1-.66V17.18a2,2,0,0,1,.51-.53.7.7,0,0,1,.37-.11.43.43,0,0,1,.26.09.54.54,0,0,1,.17.26,3.85,3.85,0,0,1,.05.8v2a2.61,2.61,0,0,1,0,.54.47.47,0,0,1-.47.31v.18H149v-.18a.52.52,0,0,1-.45-.21,1.36,1.36,0,0,1-.09-.64V17.18a2.37,2.37,0,0,1,.46-.48.79.79,0,0,1,.44-.16.37.37,0,0,1,.25.09.4.4,0,0,1,.16.26,3.14,3.14,0,0,1,.06.8v2a1.2,1.2,0,0,1-.1.63.55.55,0,0,1-.42.22v.18h2.45v-.18a.63.63,0,0,1-.42-.17,1.49,1.49,0,0,1-.1-.68V17.79a3.76,3.76,0,0,0-.11-1.11,1.21,1.21,0,0,0-.4-.57,1.28,1.28,0,0,0-.79-.23,1.68,1.68,0,0,0-.78.2,3.35,3.35,0,0,0-.77.66,1.41,1.41,0,0,0-.48-.64,1.27,1.27,0,0,0-.77-.22,1.66,1.66,0,0,0-.73.17,2.58,2.58,0,0,0-.72.6V16h-1.93v.19a.63.63,0,0,1,.41.17,1.31,1.31,0,0,1,.1.67v2.68a1.62,1.62,0,0,1-.08.66.6.6,0,0,1-.43.19v.18h2.44Z"/><path class="cls-1" d="M154.44,20.91a1.82,1.82,0,0,0,1.08-.33,2.84,2.84,0,0,0,.85-1.11l-.17-.11a2.42,2.42,0,0,1-.53.61,1,1,0,0,1-.56.16,1,1,0,0,1-.84-.42,2.46,2.46,0,0,1-.5-1.49h2.6a2.75,2.75,0,0,0-.57-1.75,1.64,1.64,0,0,0-1.25-.59,2,2,0,0,0-1.5.7,2.69,2.69,0,0,0-.64,1.89,2.83,2.83,0,0,0,.43,1.62A1.79,1.79,0,0,0,154.44,20.91Zm-.69-3.2a2.3,2.3,0,0,1,.29-1.24.52.52,0,0,1,.43-.26.44.44,0,0,1,.29.09,1,1,0,0,1,.28.46,5.47,5.47,0,0,1,.08,1.12h-1.37Z"/><path class="cls-1" d="M159.37,20.58a.49.49,0,0,1-.37-.18,1.34,1.34,0,0,1-.1-.67V17.19c.25-.42.52-.62.81-.62a.35.35,0,0,1,.24.08.43.43,0,0,1,.16.24,3.56,3.56,0,0,1,0,.73v2.11a1.41,1.41,0,0,1-.08.63.49.49,0,0,1-.38.22v.18h2.4v-.18a.59.59,0,0,1-.42-.17,1.49,1.49,0,0,1-.1-.68V17.88a4.67,4.67,0,0,0-.08-1.11,1.24,1.24,0,0,0-.4-.63,1.18,1.18,0,0,0-.77-.26,1.48,1.48,0,0,0-.72.18,2.83,2.83,0,0,0-.7.57V16H157v.19a.63.63,0,0,1,.41.17,1.31,1.31,0,0,1,.1.67v2.68a1.4,1.4,0,0,1-.09.66.56.56,0,0,1-.42.19v.18h2.4Z"/><path class="cls-1" d="M163.2,19.08a5.28,5.28,0,0,0,.05.94,1.2,1.2,0,0,0,1.16.81,1.39,1.39,0,0,0,1.34-1l-.16-.12c-.19.34-.4.51-.62.51a.34.34,0,0,1-.18-.08.43.43,0,0,1-.13-.19,2,2,0,0,1,0-.53V16.52h1.13V16h-1.13V14.29h-.17a5.52,5.52,0,0,1-.78,1.11,6.94,6.94,0,0,1-1.09,1v.17h.62Z"/><rect class="cls-1" x="60" y="25.8" width="119.38" height="0.61"/><polygon class="cls-1" points="27.94 14.76 28.12 14.9 28.12 14.67 28.32 14.63 28.15 14.48 28.25 14.29 28.04 14.33 27.93 14.12 27.82 14.34 27.61 14.31 27.71 14.49 27.55 14.65 27.74 14.67 27.74 14.9 27.94 14.76"/><path class="cls-1" d="M26.93,13.07a0,0,0,0,0,0,0s0,.05,0,.05l0,0s0,0,0,0h0a0,0,0,0,0,0,0,0,0,0,0,0,.09,0,.05.05,0,0,0,0,0h0a.06.06,0,0,0-.05.06,0,0,0,0,0,.05.05s0,0,0,0,0,0,0,0l0,0,.09.27,0,.12.1,0,0,.05a3.15,3.15,0,0,1,.56-.08,3,3,0,0,1,.56.08l0-.05.11,0-.05-.12h0l.1-.27,0,0s0,0,0,0a.07.07,0,0,0,.05,0,.05.05,0,0,0,0-.05.06.06,0,0,0,0-.06h0s0,0,0,0a.05.05,0,0,0,0,0,0,0,0,0,0,.05,0,0,0,0,0,0-.05,0h0v0a0,0,0,0,0,0,0s0,0,0-.05a0,0,0,0,0,0,0l0,0,0-.05h0a0,0,0,0,0,0-.05s0-.06,0-.06a0,0,0,0,0,0,0l0-.05a0,0,0,0,0,0,0,.06.06,0,0,0,0-.06.06.06,0,0,0-.05.06l-.05,0a.05.05,0,0,0,0,0,0,0,0,0,0-.05-.05,0,0,0,0,0,0,.05v0h-.07a0,0,0,0,0,0,0s0-.05,0-.05a.05.05,0,0,0-.05.05s0,0,0,0h-.06a0,0,0,0,0,0,0,.06.06,0,0,0-.06-.05s0,0,0,.05a.06.06,0,0,0,0,.05l-.05,0v0s0-.06,0-.06a.06.06,0,0,0-.05.06l0,0h0a.14.14,0,0,0,0-.06.15.15,0,0,0,0-.1.21.21,0,0,0-.08-.16h.05a.06.06,0,0,1-.07-.07s.07,0,.08.05h0v-.15h0c0,.05-.05,0-.08,0s0-.06.07-.06h-.19a.07.07,0,0,1,.07.06s-.07,0-.08,0h0v.15h0c0-.06,0-.05.07-.05a.06.06,0,0,1-.06.07h0a.25.25,0,0,0-.08.16.12.12,0,0,0,0,.1.07.07,0,0,0,0,.06h-.05s0,0,0,0a.06.06,0,0,0-.06-.06s0,0,0,.06v0l-.06,0a0,0,0,0,0,0-.05.05.05,0,0,0-.05-.05.06.06,0,0,0-.05.05v0h-.06s0,0,0,0,0-.05,0-.05a.06.06,0,0,0-.06.05v0h-.06v0a0,0,0,0,0-.05-.05,0,0,0,0,0,0,.05s0,0,0,0l-.06,0s0-.06,0-.06,0,0,0,.06,0,0,0,0L27,13s0,0,0,0a.05.05,0,0,0-.06.06s0,.05.06.05a0,0,0,0,0,0,0s0,0,0,.05Zm.24.78-.09,0,0-.09.08,0Zm.3-.08s-.08,0-.08,0,0,0,.07-.05a.07.07,0,0,1,.08,0S27.51,13.76,27.47,13.77Zm.28,0-.06-.09.06-.09.06.09Zm0-.87a0,0,0,0,1,0,0,0,0,0,1,1-.06,0A0,0,0,0,1,27.75,12.92Zm0-.05s0,0,0,0,0,0,0,0,0,0,0,0S27.72,12.88,27.72,12.87Zm0,.14a0,0,0,0,1,0,0,0,0,0,0,1-.06,0A0,0,0,0,1,27.75,13Zm0,.09s0,0,0,0a0,0,0,0,1-.06,0S27.73,13.1,27.75,13.1Zm0,.09a0,0,0,0,1,0,0,0,0,0,1,1-.06,0A0,0,0,0,1,27.75,13.19Zm.28.58s-.07,0-.06,0,0,0,.07,0,.08,0,.08.05A.07.07,0,0,1,28,13.77Zm.39.05-.08,0,0-.08.07,0Zm-.55-.57V13c.3-.1.39-.15.51,0a.27.27,0,0,1,0,.36l0,0h0v0c.08,0,.07.07.05.15s-.09,0-.07-.12h0l-.07.25h0c0-.1.05-.08.11-.06s-.09.15-.19.12a.15.15,0,0,1-.05-.18s.07,0,.05,0,.14-.15,0-.14a.2.2,0,0,0,0-.16s-.06.06-.09.14c-.12-.08-.16.08-.07.11s.06,0,.06,0a.14.14,0,0,1-.13.13c-.07,0-.13-.06-.14-.16s.1,0,.11.08h0v-.24h0c0,.08-.06.07-.11.07s0-.13.1-.13h0Zm-.05,0v-.36h0v.36Zm-.17-.46s0,0,.07-.06v-.08h.05v.08c.09,0,.07,0,.07.06Zm0,.1v.36h0v-.36Zm-.57.07c.12-.11.22-.06.52,0v.25h0c.06,0,.09.07.09.13s-.09,0-.12-.07h0v.24h0c0-.09.06-.08.12-.08s-.06.17-.14.16a.13.13,0,0,1-.12-.13s0-.08.06,0,0-.19-.09-.11c0-.08,0-.13-.07-.14a.2.2,0,0,0,0,.16c-.16,0-.12.15,0,.14s0-.07.06,0a.18.18,0,0,1-.06.18c-.09,0-.15,0-.19-.12s.08,0,.11.06h0l-.06-.25h0c0,.11,0,.1-.08.12s0-.13.05-.15v0h0l0,0A.27.27,0,0,1,27.12,13Z"/><path class="cls-1" d="M30.91,14.25v-.06h0v.06c-.06,0-.05,0-.05.05H31S31,14.25,30.91,14.25Z"/><polygon class="cls-1" points="27.01 15.62 27.01 15.85 27.2 15.71 27.38 15.85 27.38 15.62 27.58 15.58 27.41 15.43 27.51 15.24 27.31 15.28 27.19 15.07 27.08 15.29 26.87 15.26 26.98 15.44 26.8 15.6 27.01 15.62"/><rect class="cls-1" x="30.94" y="14.36" width="0.02" height="0.25"/><path class="cls-1" d="M30.89,14.51a0,0,0,0,0,0,0,0,0,0,0,0,0,0l0,0Z"/><path class="cls-1" d="M28.78,21.37a1.76,1.76,0,0,0,.24-.6c.13-.63-.46-1.12-.46-1.76l.16,0a.62.62,0,0,0,.26-.09s-.16-.07-.18-.12-.05-.15-.16-.19c-.87,0,.26,1.63-.05,2-.06.08-.3-.08-.36-.11a1.7,1.7,0,0,0,.06-.31,1.1,1.1,0,0,0-.71-.93,5,5,0,0,1-.88-.75,3.31,3.31,0,0,0,.09.62c-.31-.27-.05.13,0,.32,0,0-.14-.08-.14,0s.1.33.11.5,0,.27,0,.41c-.11-.05-.23-.25-.33-.18s.07.22.08.33-.05.21,0,.29a2,2,0,0,0,.56.72c.08.06.16.05.31,0a.56.56,0,0,1-.07.13c0,.11.4.05.6,0C28.32,21.72,28.5,21.75,28.78,21.37Z"/><polygon class="cls-1" points="26.11 14.97 26.1 14.96 26.1 15 26.11 15 26.11 14.97"/><path class="cls-1" d="M23.61,19c-.12.67,0,.94.7,1,0-.24,0-.63.22-.74a1.5,1.5,0,0,0-.16.54c0,.34.26.33-.17.35v.17h.26c0-.09.09-.44.21-.15s-.12.11-.12.11,0,.24-.11.33l-.23.29.13.09.19-.26-.09.31.12.07.08-.34,0,.38a.57.57,0,0,0,.22,0l0-.39.14.39h.13l-.08-.3.17.29.13,0c-.15-.24-.25-.45-.38-.7s-.11-.07-.15-.08,0-.57.14-.05h.22v-.15c-.35,0-.15,0-.13-.24a1.78,1.78,0,0,0-.15-.69c.25.12.25.53.23.81.65-.26.72-.37.72-1.08,0,0-.27.26-.27.1s.26-.11.26-.38c-.06,0-.25.28-.34.2s.28-.34.34-.38l-.06-.13s-.28.35-.32.19.35-.22.35-.6a1.42,1.42,0,0,1-.49.4c-.3.19-.11,1-.35.87l-.08,0c-.13-.55,0-.57-.66-.34.34,0,.37.15.32.34h0c-.29.06-.15-.17-.27-.24a.34.34,0,0,0-.18-.11c.56-.33-.23-.6-.49-.88.05.29.27.34.37.59s-.3-.21-.33-.25a.36.36,0,0,0,.13.35c.35.39,0,.24-.14,0,0,0,0,.1,0,.15S24.06,19.43,23.61,19Zm1.07-.2a.05.05,0,0,1,.05.05.05.05,0,0,1-.1,0A.05.05,0,0,1,24.68,18.82Z"/><polygon class="cls-1" points="28.14 16.31 27.79 16.33 27.65 15.94 27.42 16.28 27.07 16.17 27.19 16.51 26.88 16.72 27.21 16.82 27.16 17.18 27.5 17 27.77 17.28 27.83 16.91 28.16 16.89 27.93 16.61 28.14 16.31"/><polygon class="cls-1" points="28.63 16.12 28.57 15.94 28.5 16.12 28.3 16.14 28.46 16.24 28.41 16.43 28.57 16.33 28.73 16.43 28.67 16.24 28.82 16.14 28.63 16.12"/><polygon class="cls-1" points="28.36 15.54 28.48 15.73 28.6 15.54 28.79 15.54 28.69 15.39 28.79 15.24 28.6 15.24 28.48 15.04 28.36 15.24 28.19 15.24 28.28 15.39 28.19 15.54 28.36 15.54"/><path class="cls-1" d="M30.89,14.45a0,0,0,0,0,0,0,0,0,0,0,0,0,0l0,0Z"/><polygon class="cls-1" points="30.42 15.01 30.48 15.04 30.51 14.98 30.46 14.96 30.42 15.01"/><rect class="cls-1" x="30.83" y="14.36" width="0.02" height="0.25"/><path class="cls-1" d="M30.69,14.93s-.05,0-.05,0,0,0,.06,0,0,0,0,0S30.71,14.92,30.69,14.93Z"/><path class="cls-1" d="M31.68,20.44c.06,0,.13.13.16.07s0-.25,0-.37.19-.23.14-.34-.16.11-.23.08-.09-.07-.11-.13c.19-.28.35-.41.09-.87s0-.95.38-.47c0,.07,0,.26.13.23s.11-.19.09-.28c0-.25-.56-.28-.68-.13-.43.5.41,1,0,1.35-.05.05-.29,0-.33,0-.21-.21.35-.78-.32-1-.31-.11-.23,0-.44.09-.05,0-.13,0-.17,0s.05.06,0,.09-.09,0-.13,0c-.2.17.59,0,.36.25-.06,0-.43-.05-.41.11s.47,0,.23.17a.52.52,0,0,1-.25.16C30,19.09,30,19,30,18.48a.39.39,0,0,0,.1.08c-.09-.39-.18-.49-.55-.3.3,0,.2,0,0,.2.23,0,.15,0,.11.21.37-.39-.06.76,0,.93a.38.38,0,0,0,.24,0v.1c0,.31-.2.21,0,.51.05.06.18.08.18.15a1.38,1.38,0,0,1-.32.91c-.09.05-.43,0-.38.26s.17-.12.23-.14,0,.13.06.13c.54-.06.34-.4.57-.66,0-.06.14-.06.18-.12.16-.26.09-.61.54-.71.05,0,0,.08.07.09s.1-.09.09-.06a.5.5,0,0,1-.3.36c-.4.12,0,.12,0,.11s.08-.12.15-.17c.27-.17.24,0,.38-.32.14,0,.31,0,.3.23,0,0-.27.15-.19.35C31.64,20.64,31.62,20.47,31.68,20.44Z"/><path class="cls-1" d="M30.89,14.38s0,0,0,0a0,0,0,0,0,0,0l0,0S30.9,14.38,30.89,14.38Z"/><path class="cls-1" d="M30.79,14.83h0v-.17h0c0,.06,0,.05.07.05s0-.08-.06-.08v0h0v-.17c-.21-.07-.27-.11-.35,0a.17.17,0,0,0,0,.24l0,0h0v0c-.06,0,0,.06,0,.1s.06,0,.05-.08h0l0,.18h0c0-.07,0-.06-.07-.05s.06.11.12.09a.11.11,0,0,0,.05-.13s-.06,0-.05,0-.09-.11,0-.09a.16.16,0,0,1,0-.12.12.12,0,0,1,.06.1c.09-.06.12.06.06.08s0,0,0,0,0,.09.09.09.1,0,.1-.11S30.8,14.77,30.79,14.83Z"/><path class="cls-1" d="M30.89,14.32a0,0,0,0,0,0,0s0,0,0,0,0,0,0,0Z"/><path class="cls-1" d="M30.87,14.6a0,0,0,0,0,0,0l0,0s0,0,0,0S30.87,14.58,30.87,14.6Z"/><path class="cls-1" d="M31,14.44v.17h0v0a.08.08,0,0,0-.08.08c.05,0,.08,0,.09-.05h0v.17h0c0-.06,0-.05-.07-.05s0,.12.08.11a.11.11,0,0,0,.1-.09s0-.05-.05,0,0-.14.06-.08a.12.12,0,0,1,.06-.1.16.16,0,0,1,0,.12c.12,0,.09.1,0,.09s0-.05,0,0a.12.12,0,0,0,0,.13c.07,0,.11,0,.13-.09s0,0-.07.05h0l.06-.18h0c0,.08,0,.07.05.08s0-.09,0-.1v0h0l0,0a.16.16,0,0,0,0-.24C31.25,14.33,31.18,14.37,31,14.44Z"/><path class="cls-1" d="M32,14.69l.26-.85-.89.36.55-1.6-1,.42L30,12.6l.48,1.58-.8-.34.24.9-.29.89.81-.3L29.87,17l1.06-.46,1,.44L31.4,15.3l.89.32Zm-.54-.11,0,0a0,0,0,0,1,0,0l0,0v0a0,0,0,0,1,0,.06,0,0,0,0,1,0,0s0,0,0,0l0,0-.07.19,0,.07-.07.05v0l-.4-.07-.39.07v0L30.41,15l0-.07-.07-.19,0,0s0,0,0,0,0,0,0,0a0,0,0,0,1,0-.06h0a0,0,0,0,1,0,0l0,0s0,0,0,0a0,0,0,0,1,0,0h0v0h0a0,0,0,0,1,0-.06h0a0,0,0,0,1,0,0h0a0,0,0,0,1,0-.06l0,0s0,0,0,0,0,0,0,0a0,0,0,0,1,0,0s0,0,0,0l0,0s0,0,0,0,0,0,0,0a0,0,0,0,1,0,0v0h.05v0s0,0,0,0a0,0,0,0,1,0,0v0h0s0,0,0,0a0,0,0,0,1,0,0,0,0,0,0,1,0,0l0,0v0s0,0,.05,0a0,0,0,0,1,0,0s0,0,0,0h0a.05.05,0,0,1,0,0,.09.09,0,0,1,0-.06.17.17,0,0,1,.06-.12h0s0,0,0-.05,0,0-.05,0h0V14h0s0,0,.05,0,0-.05,0-.05H31a.06.06,0,0,0-.06.05s.06,0,.07,0h0v.1h0s0,0-.07,0a.06.06,0,0,0,.06.05h0a.17.17,0,0,1,.06.12.09.09,0,0,1,0,.06.05.05,0,0,1,0,0h0s0,0,0,0a0,0,0,0,1,0,0,0,0,0,0,1,0,0v0l.05,0,0,0a0,0,0,0,1,0,0s0,0,0,0h0s0,0,0,0,0,0,0,0,0,0,0,0v0h.06v0a0,0,0,0,1,0,0,0,0,0,0,1,0,0s0,0,0,0l0,0a0,0,0,0,1,0,0s0,0,0,0a0,0,0,0,1,0,0s0,0,0,0l0,0a0,0,0,0,1,0,.06h0v0h0a0,0,0,0,1,0,.06h0v0Z"/><polygon class="cls-1" points="31.28 14.98 31.3 15.04 31.35 15.01 31.33 14.96 31.28 14.98"/><polygon class="cls-1" points="30.85 14.93 30.89 14.99 30.94 14.93 30.89 14.86 30.85 14.93"/><path class="cls-1" d="M31,14.94s0,0,.05,0a0,0,0,0,0,.06,0s0,0,0,0S31,14.93,31,14.94Z"/><path class="cls-1" d="M19.91,36.44a1,1,0,0,1-.2-.27l-.89-1.56h0l-.54,1.66a1.11,1.11,0,0,1-.14.32.28.28,0,0,1-.17.11v0l.66-.07v0h-.19a.14.14,0,0,1-.08-.12.37.37,0,0,1,0-.17l.06-.2.71-.07.13.23.05.11a.17.17,0,0,1,0,.05.08.08,0,0,1,0,.07.22.22,0,0,1-.16,0h0v.05l1-.1v-.05A.33.33,0,0,1,19.91,36.44ZM18.45,36l.24-.72.36.65Z"/><path class="cls-1" d="M24.51,33.64l.06.53h.06a.58.58,0,0,1,.12-.36A.43.43,0,0,1,25,33.7l.14,0,.16,1.54a.48.48,0,0,1,0,.18.11.11,0,0,1-.05.08l-.13.05h-.07v.06l1.05-.11v-.06h-.07a.27.27,0,0,1-.13,0,.19.19,0,0,1-.08-.07.76.76,0,0,1,0-.18l-.16-1.54H26a.42.42,0,0,1,.17.11,1,1,0,0,1,.14.26h.05l-.06-.54Z"/><path class="cls-1" d="M35,36.37H35a.23.23,0,0,1-.12-.06.19.19,0,0,1-.06-.07.66.66,0,0,1,0-.2l.25-1.29a.35.35,0,0,1,0-.18.13.13,0,0,1,.07-.06h.21v0l-1-.2v.05h.07a.34.34,0,0,1,.12.06.1.1,0,0,1,.05.08.51.51,0,0,1,0,.19l-.25,1.29a.5.5,0,0,1,0,.18.13.13,0,0,1-.07.06H34v.06l1,.19Z"/><path class="cls-1" d="M33.69,35.39h-.06a1.48,1.48,0,0,1-.2.33.39.39,0,0,1-.2.15.48.48,0,0,1-.27,0l-.17,0-.18,0a.13.13,0,0,1-.06-.07,1,1,0,0,1,0-.2l.17-1.26a1.34,1.34,0,0,1,0-.18.46.46,0,0,1,.07-.07h.23V34L32,33.84v.06h.06a.33.33,0,0,1,.13,0,.21.21,0,0,1,.06.08,1.77,1.77,0,0,1,0,.19l-.19,1.31a.59.59,0,0,1,0,.18.13.13,0,0,1-.07.06.21.21,0,0,1-.14,0h-.07v.06l1.76.24Z"/><path class="cls-1" d="M27,33.42a.68.68,0,0,1,.19,0,.13.13,0,0,1,.06.07.5.5,0,0,1,0,.21L27.22,35a.4.4,0,0,1,0,.2.09.09,0,0,1-.07.06.31.31,0,0,1-.19,0v.06l1,0v0a.61.61,0,0,1-.19,0l-.07-.07a1,1,0,0,1,0-.21l0-.56h.13l.61.93.63,0v0a.3.3,0,0,1-.14-.06.92.92,0,0,1-.13-.16l-.46-.7a.65.65,0,0,0,.29-.13.45.45,0,0,0,.17-.36.46.46,0,0,0-.09-.32.52.52,0,0,0-.27-.19,2,2,0,0,0-.53-.07l-.93,0Zm.75.08h.15a.43.43,0,0,1,.34.12.48.48,0,0,1,.1.34.57.57,0,0,1-.07.25.28.28,0,0,1-.16.13.71.71,0,0,1-.31,0h-.09Z"/><path class="cls-1" d="M30,35.5a.59.59,0,0,1-.19-.06.17.17,0,0,1-.05-.14.48.48,0,0,1,.07-.15l.11-.18.7.1.07.26,0,.11v.06a.09.09,0,0,1,0,.06.3.3,0,0,1-.17,0h0v0l1,.14V35.7a.2.2,0,0,1-.13-.07,1,1,0,0,1-.13-.32l-.49-1.72h0l-.93,1.49a1,1,0,0,1-.21.27.36.36,0,0,1-.19.07v.05l.66.09Zm.4-1.27.2.72-.6-.08Z"/><path class="cls-1" d="M22,34.11h0v-.06l-.68.13v.06a.43.43,0,0,1,.19,0,.31.31,0,0,1,.09.07.46.46,0,0,1,.06.18l.16.8a1.26,1.26,0,0,1,0,.45.44.44,0,0,1-.13.23.46.46,0,0,1-.26.13.48.48,0,0,1-.24,0,.4.4,0,0,1-.16-.12,1,1,0,0,1-.11-.34l-.18-1a.8.8,0,0,1,0-.22.18.18,0,0,1,.05-.07.36.36,0,0,1,.15-.06h0v0l-1,.2v0a.38.38,0,0,1,.18,0,.13.13,0,0,1,.07,0,.68.68,0,0,1,.06.21l.19,1a.84.84,0,0,0,.15.38.71.71,0,0,0,.32.18.82.82,0,0,0,.41,0,.74.74,0,0,0,.45-.22.59.59,0,0,0,.17-.33A1.82,1.82,0,0,0,22,35.2l-.15-.74a.54.54,0,0,1,0-.17.23.23,0,0,1,.06-.12A.26.26,0,0,1,22,34.11Z"/><path class="cls-1" d="M35.34,36.55l.67.05v-.05a.68.68,0,0,1-.19,0,.16.16,0,0,1-.06-.13.82.82,0,0,1,.06-.16l.1-.18.7.06.09.25,0,.12a.11.11,0,0,1,0,0,.1.1,0,0,1,0,.07.37.37,0,0,1-.17,0h0v.06l1,.08v0a.21.21,0,0,1-.14-.07.91.91,0,0,1-.14-.31l-.58-1.69h0l-.85,1.53a1.24,1.24,0,0,1-.2.29.29.29,0,0,1-.18.07Zm1-1.29.23.71-.6,0Z"/><path class="cls-1" d="M23.48,34.59l-.35-.12a.37.37,0,0,1-.15-.11.22.22,0,0,1-.05-.11.25.25,0,0,1,.06-.2.36.36,0,0,1,.22-.12.54.54,0,0,1,.38.09.68.68,0,0,1,.27.37h.06l-.12-.65h0a.71.71,0,0,1,0,.12l-.06,0a.3.3,0,0,1-.15,0l-.17,0a.61.61,0,0,0-.72.67.52.52,0,0,0,.11.25.6.6,0,0,0,.21.17,2.23,2.23,0,0,0,.43.17,1.63,1.63,0,0,1,.29.11.36.36,0,0,1,.13.11.31.31,0,0,1,.06.13.3.3,0,0,1-.06.22.4.4,0,0,1-.25.13.6.6,0,0,1-.42-.1.82.82,0,0,1-.32-.45l-.06,0,.12.74h.05a.33.33,0,0,1,.06-.1.13.13,0,0,1,.07,0h.12l.22,0h.18a.71.71,0,0,0,.47-.26.53.53,0,0,0,.12-.45.59.59,0,0,0-.17-.33A1.47,1.47,0,0,0,23.48,34.59Z"/><path class="cls-1" d="M5.48,22.62a.32.32,0,0,0-.63,0,.32.32,0,1,0,.63,0Z"/><path class="cls-1" d="M6,22.2a.32.32,0,0,0-.32.32.32.32,0,0,0,.63,0A.32.32,0,0,0,6,22.2Z"/><path class="cls-1" d="M5.7,24.66c.16-.17.28-.4.43-.58a3.14,3.14,0,0,1,.31-.32,5,5,0,0,0-.92.32,2,2,0,0,0-.56.47,4.39,4.39,0,0,0-.27.53,2.7,2.7,0,0,1-.28.31,5.78,5.78,0,0,0,.76-.32A2.09,2.09,0,0,0,5.7,24.66Z"/><path class="cls-1" d="M4.56,21.84a.31.31,0,1,0,.62,0,.31.31,0,0,0-.62,0Z"/><path class="cls-1" d="M3.13,22.64a.31.31,0,1,0,0-.62.31.31,0,0,0,0,.62Z"/><path class="cls-1" d="M3.91,22a.32.32,0,0,0,.32-.33.32.32,0,1,0-.32.33Z"/><path class="cls-1" d="M7.42,22a1.56,1.56,0,0,0,.47.17,3.26,3.26,0,0,0,.7,0c.22,0,.44-.12.66-.18a6.61,6.61,0,0,0-1-.38,7,7,0,0,0-.92-.05,4.6,4.6,0,0,1-.5-.13A4.76,4.76,0,0,0,7.42,22Z"/><path class="cls-1" d="M7.29,17a.31.31,0,1,0,.3.31A.31.31,0,0,0,7.29,17Z"/><path class="cls-1" d="M4,22.66a.31.31,0,0,0,.32.31.31.31,0,0,0,.31-.31.31.31,0,0,0-.31-.32A.32.32,0,0,0,4,22.66Z"/><path class="cls-1" d="M7.17,18.14a.31.31,0,1,0,.31-.31A.31.31,0,0,0,7.17,18.14Z"/><path class="cls-1" d="M5,16.34a.31.31,0,0,0,.62,0,.31.31,0,0,0-.62,0Z"/><path class="cls-1" d="M3.85,23.42a5.06,5.06,0,0,0-.73.38c.14,0,.28,0,.42,0a3.82,3.82,0,0,0,.56.14,1.84,1.84,0,0,0,.74-.14,5.38,5.38,0,0,0,.83-.5c-.15,0-.3,0-.46,0s-.47-.05-.7,0A2.43,2.43,0,0,0,3.85,23.42Z"/><path class="cls-1" d="M8.13,17.69a.31.31,0,1,0-.3-.31A.31.31,0,0,0,8.13,17.69Z"/><path class="cls-1" d="M5.68,20.69a7.28,7.28,0,0,0-.79-.78,5.71,5.71,0,0,0,.12.74,2.49,2.49,0,0,0,.32.68,1.25,1.25,0,0,0,.37.39,5.32,5.32,0,0,0,.78.32c-.11-.15-.24-.29-.34-.45A7.62,7.62,0,0,0,5.68,20.69Z"/><path class="cls-1" d="M6.64,17.56a.31.31,0,0,0,0,.61.31.31,0,1,0,0-.61Z"/><path class="cls-1" d="M3.26,31.06a.27.27,0,0,0-.28.27.28.28,0,1,0,.55,0A.27.27,0,0,0,3.26,31.06Z"/><path class="cls-1" d="M11.37,37.21l.21-.05a2.25,2.25,0,0,0,.57-.19,1.61,1.61,0,0,0,.58-.58,4.09,4.09,0,0,0,.24-1,2.48,2.48,0,0,1-.26.4A16,16,0,0,0,11.37,37.21Z"/><path class="cls-1" d="M46,15.52a.3.3,0,0,0,0-.6A.3.3,0,0,0,46,15.52Z"/><path class="cls-1" d="M11.77,31.64a.28.28,0,1,0-.28.28A.29.29,0,0,0,11.77,31.64Z"/><path class="cls-1" d="M11.47,35a.28.28,0,0,0-.28-.28.28.28,0,0,0,0,.56A.28.28,0,0,0,11.47,35Z"/><path class="cls-1" d="M12.45,35.13a.28.28,0,1,0-.28.28A.29.29,0,0,0,12.45,35.13Z"/><path class="cls-1" d="M11.59,36.14a.28.28,0,0,0,.28-.27.28.28,0,1,0-.56,0A.28.28,0,0,0,11.59,36.14Z"/><path class="cls-1" d="M40.78,37.32a2.94,2.94,0,0,1-.2.44,1.82,1.82,0,0,1-.31.31,5.31,5.31,0,0,0,.64-.3,2.11,2.11,0,0,0,.55-.48,1.6,1.6,0,0,0,.16-.48c.05-.15.06-.32.12-.45a4.79,4.79,0,0,1,.34-.53,11.73,11.73,0,0,0-1,.87A2.46,2.46,0,0,0,40.78,37.32Z"/><path class="cls-1" d="M42.78,34c.39-.15.07-.07-.1-.14-.55-.24-.44-.34-1.12-.29a2.21,2.21,0,0,1-1.11,0C41.45,34.24,41.59,34.48,42.78,34Z"/><path class="cls-1" d="M14.67,34a4.94,4.94,0,0,0,.88-.64,2.26,2.26,0,0,1-.49.14,4,4,0,0,1-.62-.1c-.68,0-.58.05-1.12.29a1.81,1.81,0,0,1-.31,0l.2.1a2.57,2.57,0,0,0,.6.23A1.68,1.68,0,0,0,14.67,34Z"/><path class="cls-1" d="M14.61,37.49a2.41,2.41,0,0,0-.14-.68,8,8,0,0,0-.73-1.09,3.72,3.72,0,0,1,.2.59,3.68,3.68,0,0,1,0,.47,1.23,1.23,0,0,0,0,.5,2.57,2.57,0,0,0,.39.62c.17.17.37.29.55.45A2.16,2.16,0,0,1,14.7,38,2.6,2.6,0,0,1,14.61,37.49Z"/><path class="cls-1" d="M13.25,33.14a.26.26,0,0,0-.26-.27.27.27,0,0,0-.28.27.28.28,0,0,0,.28.28A.27.27,0,0,0,13.25,33.14Z"/><path class="cls-1" d="M9.91,32.56a.28.28,0,0,0,.56,0,.28.28,0,1,0-.56,0Z"/><path class="cls-1" d="M10.44,32a.28.28,0,0,0,0-.55.28.28,0,1,0,0,.55Z"/><path class="cls-1" d="M4.15,29.94a1.1,1.1,0,0,0,.22.43,1.69,1.69,0,0,0,.59.39,4.88,4.88,0,0,0,.65.2,1.8,1.8,0,0,1-.34-.26A2.65,2.65,0,0,1,5,30.31a2.6,2.6,0,0,0-.4-.54,7.45,7.45,0,0,0-1-.68,2.38,2.38,0,0,1,.39.45A3.71,3.71,0,0,1,4.15,29.94Z"/><path class="cls-1" d="M2.53,31.3A.26.26,0,0,0,2.27,31a.28.28,0,1,0,0,.55A.26.26,0,0,0,2.53,31.3Z"/><path class="cls-1" d="M6.48,33.24a4.1,4.1,0,0,1-.26.41,3,3,0,0,1-.37.25,4.15,4.15,0,0,0,.69-.19,2.24,2.24,0,0,0,.62-.39,1.74,1.74,0,0,0,.23-.45c.08-.14.11-.3.19-.43A4.58,4.58,0,0,1,8,32a12.12,12.12,0,0,0-1.1.7A2.56,2.56,0,0,0,6.48,33.24Z"/><path class="cls-1" d="M3.76,30.91A.28.28,0,0,0,4,30.63a.28.28,0,0,0-.55,0A.28.28,0,0,0,3.76,30.91Z"/><path class="cls-1" d="M2.77,30.08a.28.28,0,1,0,.28.28A.27.27,0,0,0,2.77,30.08Z"/><path class="cls-1" d="M11.4,33.65c.08-.08.19-.13.29-.21a.86.86,0,0,0-.23.05,3.26,3.26,0,0,0-.67.16,2.89,2.89,0,0,0-.85.53,5.69,5.69,0,0,0-.68,1,3.23,3.23,0,0,1,.45-.38c.2-.12.44-.16.65-.27C11.07,34.14,10.93,34.13,11.4,33.65Z"/><path class="cls-1" d="M6.43,32.34a.28.28,0,0,0-.56,0,.28.28,0,0,0,.56,0Z"/><path class="cls-1" d="M1.77,30.24a.26.26,0,0,0-.26.28.25.25,0,0,0,.26.26.26.26,0,0,0,.28-.26A.27.27,0,0,0,1.77,30.24Z"/><path class="cls-1" d="M7.22,31.91a.28.28,0,0,0-.28-.27.27.27,0,0,0-.27.27.28.28,0,0,0,.27.27A.28.28,0,0,0,7.22,31.91Z"/><path class="cls-1" d="M11,32.56a.28.28,0,0,0,.56,0,.28.28,0,0,0-.56,0Z"/><path class="cls-1" d="M49.79,13.9a.31.31,0,1,0,0-.62A.31.31,0,0,0,49.79,13.9Z"/><path class="cls-1" d="M48.43,16.93a.31.31,0,0,0,0,.62A.31.31,0,0,0,48.43,16.93Z"/><path class="cls-1" d="M40.6,35.28a.28.28,0,0,0,.55,0,.28.28,0,0,0-.55,0Z"/><path class="cls-1" d="M49.84,12.91a.31.31,0,0,0,0-.62A.31.31,0,0,0,49.84,12.91Z"/><path class="cls-1" d="M49.92,18a.31.31,0,0,0,0-.61A.31.31,0,0,0,49.92,18Z"/><path class="cls-1" d="M10.81,16.11a.3.3,0,0,0,.31-.3.31.31,0,0,0-.62,0A.3.3,0,0,0,10.81,16.11Z"/><path class="cls-1" d="M49.09,18.3a.3.3,0,1,0,0-.6A.3.3,0,1,0,49.09,18.3Z"/><path class="cls-1" d="M49.28,16.84a.31.31,0,0,0,0,.62A.31.31,0,0,0,49.28,16.84Z"/><path class="cls-1" d="M9.78,16.2a.31.31,0,1,0-.29-.3A.3.3,0,0,0,9.78,16.2Z"/><path class="cls-1" d="M9.86,16.72a.31.31,0,1,0,.31-.31A.31.31,0,0,0,9.86,16.72Z"/><path class="cls-1" d="M47.67,13.72a.3.3,0,0,0,0-.6A.3.3,0,0,0,47.67,13.72Z"/><path class="cls-1" d="M47.06,15.08c.15-.53-.31-1.12-.44-1.6-.33.88.06,1.37.16,2.21A5.51,5.51,0,0,0,47.06,15.08Z"/><path class="cls-1" d="M46.26,16.53a.31.31,0,1,0,0-.62A.31.31,0,0,0,46.26,16.53Z"/><path class="cls-1" d="M44.6,15.24c0-.16-.05-.3-.05-.44a5.49,5.49,0,0,0,.06-.8,4.28,4.28,0,0,0-.23-.85,3.76,3.76,0,0,0-.23.55,2,2,0,0,0-.06.59,1,1,0,0,0,.09.42A5.13,5.13,0,0,0,44.6,15.24Z"/><polygon class="cls-1" points="26.05 4.68 26.07 6.54 27.61 5.37 29.2 6.56 29.2 4.7 30.87 4.32 29.48 3.06 30.3 1.43 28.55 1.78 27.59 0 26.7 1.86 24.85 1.58 25.75 3.17 24.36 4.5 26.05 4.68"/><path class="cls-1" d="M25.09,6.81a.5.5,0,1,0,0,1h5.06a.5.5,0,0,0,0-1Zm.58.85L25.19,7h.87l.48.71Zm1.8,0L27,7h.86l.48.71Zm1.81,0L28.8,7h.87l.47.71Z"/><path class="cls-1" d="M47.26,16.62a.31.31,0,0,0,0-.62A.31.31,0,0,0,47.26,16.62Z"/><path class="cls-1" d="M49,13.6a.3.3,0,1,0,0-.6A.3.3,0,1,0,49,13.6Z"/><path class="cls-1" d="M48.25,12.86c.06.19.1.39.16.59a7,7,0,0,0,.21-.71,2.58,2.58,0,0,0-.07-.68c0-.22-.15-.42-.19-.64s0-.47-.08-.69c-.08.22-.22.44-.28.66a2.06,2.06,0,0,0-.06.74A4.21,4.21,0,0,0,48.25,12.86Z"/><path class="cls-1" d="M10.8,16.7a.31.31,0,1,0,.31-.31A.31.31,0,0,0,10.8,16.7Z"/><path class="cls-1" d="M8.19,13.29A.31.31,0,0,0,8.5,13a.31.31,0,0,0-.61,0A.31.31,0,0,0,8.19,13.29Z"/><path class="cls-1" d="M46.94,17.74c.85.49.67.89,1.71.52C48,18,47.7,17.55,46.94,17.74Z"/><path class="cls-1" d="M50.15,22.15c-.41,0-.42.6,0,.62A.31.31,0,1,0,50.15,22.15Z"/><path class="cls-1" d="M51.86,24.7a.3.3,0,0,0-.3-.3.3.3,0,1,0,0,.6A.3.3,0,0,0,51.86,24.7Z"/><path class="cls-1" d="M52.27,22.1c.41,0,.41-.6,0-.62S51.85,22.09,52.27,22.1Z"/><path class="cls-1" d="M51.51,22.89c.42,0,.42-.62,0-.62S51.1,22.87,51.51,22.89Z"/><path class="cls-1" d="M51.05,22.11c.41,0,.41-.61,0-.61S50.64,22.09,51.05,22.11Z"/><path class="cls-1" d="M52.08,23.43a6.61,6.61,0,0,0-1.83-.23,7.57,7.57,0,0,0,.84.55c.67.31,1.06,0,1.71.11A4.72,4.72,0,0,0,52.08,23.43Z"/><path class="cls-1" d="M50.76,25c.23.14.5.23.75.35-.44-.49-.49-1-1.11-1.37a7.31,7.31,0,0,0-.92-.36A6.46,6.46,0,0,0,50.76,25Z"/><path class="cls-1" d="M55.34,23.88a1.2,1.2,0,0,0-.5-.23,1.32,1.32,0,0,0-.56,0,1.09,1.09,0,0,0-.45.21,1,1,0,0,0-.24.39.86.86,0,0,0-.06.35,1,1,0,0,0,.14.46.84.84,0,0,0,.34.24c.05,0,.14,0,.17,0s0-.12,0-.18-.12,0-.15-.06a1,1,0,0,1-.16-.41.57.57,0,0,1,.11-.44.85.85,0,0,1,.51-.22,1,1,0,0,1,.55.15.83.83,0,0,1,.37.37,1.53,1.53,0,0,1,.08.6,1.35,1.35,0,0,1-.1.5,1.86,1.86,0,0,1-.4.48,2,2,0,0,1-.52.31,2.91,2.91,0,0,1-.63.21c-.28,0-.54,0-.82.05h0l-19.74-.1a4,4,0,0,0-1.17.16,2.52,2.52,0,0,0-.59.24,2.89,2.89,0,0,0-1,1,2.6,2.6,0,0,0-.3.68,2.24,2.24,0,0,0-.09.45l-.27.24a3.86,3.86,0,0,0-.6.54,5,5,0,0,0-.79,1l0,0a5.15,5.15,0,0,1,.22-.88,9.57,9.57,0,0,1,.61-1.44,17.73,17.73,0,0,1,1-1.67,11,11,0,0,1,1.13-1.33,11.91,11.91,0,0,1,1.35-1.09,4.6,4.6,0,0,1,.81-.1,1.56,1.56,0,0,1,.53.17,6,6,0,0,0,.74.3,3.35,3.35,0,0,0,.7-.05l.7,0a8.36,8.36,0,0,0-1.07-.67,1.49,1.49,0,0,0-.67-.08c-.3,0-.6.16-.9.19a2.19,2.19,0,0,1-.51,0c.35-.24.71-.46,1.07-.69s1-.58,1.48-.84c.29-.15.89-.43,1.48-.66l1.06-.18c-.22.45-.45.89-.69,1.33s-.66,1.14-1,1.7a1.19,1.19,0,0,1-.26.33c-.12.06-.28,0-.39.06s-.24.24-.38.29a4.52,4.52,0,0,1-.52,0,7,7,0,0,0-.77.16,4.21,4.21,0,0,0-.61.16c-.12.07-.43.25-.3.26,1.16.07,2.32.05,3.48.05.12,0,.16-.19.19-.31s-.07-.27,0-.39a7.64,7.64,0,0,1,.57-1.19c.45-.86.93-1.72,1.41-2.57.61-.1,1.16-.18,1.51-.22s.94-.08,1.43-.1c0,.44,0,.86,0,1.3s0,.94-.11,1.4a3.9,3.9,0,0,1-.16.77,1.38,1.38,0,0,1-.28.31,1.25,1.25,0,0,1-.24.16,5.08,5.08,0,0,1-.86.28c-.24,0-.51.06-.75.11a1.26,1.26,0,0,0-.47.17c-.07,0-.2.11-.23.19a.08.08,0,0,0,.07.09c.78,0,1.57,0,2.36,0,.24,0,.46.05.69,0a.31.31,0,0,0,.22-.09c.07-.09.07-.22.12-.32a2,2,0,0,0,.2-.45c0-.1-.06-.21-.07-.3a3.69,3.69,0,0,1,0-.47c0-.51.07-1,.12-1.54s.11-1.11.17-1.65h.06a7.17,7.17,0,0,0,.72.74c-.14-.21-.26-.53-.4-.74a5.71,5.71,0,0,1,1.29.17,6.87,6.87,0,0,1,1.23.42c.37.16.7.4,1.08.56a9.2,9.2,0,0,0,1.14.43,7.75,7.75,0,0,0,1,.23c.27,0,.53,0,.79,0-.34-.08-.69-.14-1-.23a14.35,14.35,0,0,1-1.41-.44,7.94,7.94,0,0,1-.72-.34h0l-.69-.35a7.05,7.05,0,0,0-1.34-.56,8.27,8.27,0,0,0-1.68-.15.88.88,0,0,1,0-.16,2,2,0,0,1,.23-.93c.12-.18.4-.19.6-.25a.89.89,0,0,1,.35-.06c.21,0,.39.1.59.12s.22,0,.32,0,.25.14.37.17.19,0,.26,0,.16.15.27.15.14-.15.22-.17.17,0,.24-.05a.51.51,0,0,0,.19-.35,2.54,2.54,0,0,0-.08-.91h0l0-.14a3.76,3.76,0,0,0-.31-.68,2,2,0,0,0,.91-.43.23.23,0,0,1-.1-.12,3.49,3.49,0,0,1-.57.32c-.09,0-.24,0-.32.07q-.2-.39-.42-.78a.24.24,0,0,0-.09-.15L45,16.4a15.54,15.54,0,0,0-1.54-1.71,5.14,5.14,0,0,0-.94-.63,9.41,9.41,0,0,0-1.35-.57,6.21,6.21,0,0,0-1.26-.29,4.1,4.1,0,0,0-1,0,8.2,8.2,0,0,0-1,.31c-.34.1-.66.27-1,.35a.63.63,0,0,1-.41,0,.68.68,0,0,1-.33-.34,1.36,1.36,0,0,1-.07-.57,3.17,3.17,0,0,1,0-.69,5.28,5.28,0,0,1,.28-.85c.2-.53.47-1,.65-1.59A12.55,12.55,0,0,0,37.51,8a3.28,3.28,0,0,0,.14-.93,1.41,1.41,0,0,0-.16-.59,1.06,1.06,0,0,0-.35-.43,1.28,1.28,0,0,0-.53-.24,1,1,0,0,0-.38,0A.61.61,0,0,0,35.9,6a2.57,2.57,0,0,0-.18.33,1.77,1.77,0,0,1-.33.34c-.18.15-.42.23-.61.38s0,.12-.06.17l1,0a1.73,1.73,0,0,1,.4,0,.27.27,0,0,1,.14.19.7.7,0,0,1,0,.38,3.52,3.52,0,0,1-.3.69c-.21.37-.42.73-.65,1.08s-.34.4-.49.61a6.7,6.7,0,0,0-.54.88,7.8,7.8,0,0,0-.49,1.24l0,.12V10.91H25.58a2.22,2.22,0,0,0-.45-.34,2.57,2.57,0,0,0-.65-.2,1.23,1.23,0,0,0-.57,0,7.3,7.3,0,0,0-.9.41,1.66,1.66,0,0,1-.33.15H22v.31l-.11,0c-.07,0-.19.07-.21,0-.15-.49-.13-.94-.3-1.45a7.76,7.76,0,0,1-.12-1c0-.16.17-.22.35-.19a1.61,1.61,0,0,1,.88,0c.19,0,.29-.16.38-.28s.2-.07.24-.15a1.87,1.87,0,0,1,0-.48c-.28-.25-.56-.43-.77-.64a2.09,2.09,0,0,0-.22-.2c0-.08.06-.17,0-.25s-.22-.21-.32-.31-.36-.18-.42-.32.13-.45.11-.67a1.3,1.3,0,0,0,0-.65.66.66,0,0,0,0-.28.13.13,0,0,0-.09-.1s-.09,0-.1,0a1.66,1.66,0,0,1-.2.4,3.64,3.64,0,0,0-.44.57l-.13.26c0,.06-.06.16-.14.19a2.05,2.05,0,0,0-.2-.23A5.33,5.33,0,0,0,19.66,5a3.25,3.25,0,0,0-.61-.33,1.1,1.1,0,0,0-.39-.12s-.08,0-.08,0a2,2,0,0,0,.08.35c0,.12,0,.24,0,.35a1.76,1.76,0,0,0,.12.39A1.1,1.1,0,0,0,19,6c.16.21.35.39.5.62a.4.4,0,0,1,.05.24c-.06.37-.23.7-.29,1.06s.05.79,0,1.17a2.31,2.31,0,0,1-.3.61c-.12.27-.21.56-.35.83s-.36.51-.53.77-.34.58-.54.85a5.94,5.94,0,0,1-.64.77c-.5.51-1,1-1.57,1.48a11.47,11.47,0,0,0-1.14,1.27,4.65,4.65,0,0,0-.56.78,5.24,5.24,0,0,0-.44,1.2,5.87,5.87,0,0,0-.2,1.11c-.34-.15-.67-.31-1-.47s-.6-.39-.91-.55-.6-.25-.91-.38-.52-.26-.78-.37a2.36,2.36,0,0,1-.3-.34,1.27,1.27,0,0,1-.28-.54,1.11,1.11,0,0,1,.11-.62c.1-.22.34-.36.44-.58a1.7,1.7,0,0,0,.24-.76,7.55,7.55,0,0,0-.28-1.3,8.17,8.17,0,0,1-.17.86c-.07.22-.21.41-.3.64a4.23,4.23,0,0,0-.21.63,3.08,3.08,0,0,0,0,.53,3.19,3.19,0,0,0,.08.63,1.78,1.78,0,0,0,.26.58.55.55,0,0,0,.13.14c-.31-.1-.62-.16-.93-.23a3.08,3.08,0,0,0-.73-.06c-.21,0-.38.19-.6.21s-.71-.07-1,0a3.82,3.82,0,0,0-.71.39l-.5.21c.44,0,.88.1,1.31.09a2,2,0,0,0,.68-.13c.22-.11.34-.35.55-.47a1.29,1.29,0,0,1,.58-.13,2.29,2.29,0,0,1,.58.06,10.72,10.72,0,0,1,1.14.34,8.38,8.38,0,0,1,1,.47c.21.11.42.25.63.38l-.33.11a5.08,5.08,0,0,0-.75.25,3.19,3.19,0,0,0-.57.39,2.43,2.43,0,0,0-.49.57,1.17,1.17,0,0,0-.19.57,1.47,1.47,0,0,0,.17.6c0,.08.15.14.19.23a3.45,3.45,0,0,1,.17.63,2.46,2.46,0,0,1,.09-.39,4.2,4.2,0,0,0,.17-.5A2.1,2.1,0,0,0,9.31,20a2.88,2.88,0,0,1-.1-.51,1.22,1.22,0,0,1,.1-.53,1.24,1.24,0,0,1,.43-.45,2.56,2.56,0,0,1,.72-.25,6.25,6.25,0,0,1,.87-.08c.41.24.8.48,1.23.7l.36.15c0,.29,0,.58,0,.87,0,.45-.07.89-.09,1.33,0,.1,0,.22,0,.33a9.26,9.26,0,0,0-1.31.05,7,7,0,0,0-1.33.48c-.49.19-.95.45-1.44.61A9.81,9.81,0,0,1,7.32,23c-.34.08-.69.11-1,.17.26,0,.53,0,.78,0a7.43,7.43,0,0,0,1-.18,6.63,6.63,0,0,0,1.15-.35c.36-.14.71-.35,1.07-.49a6.73,6.73,0,0,1,1.24-.35,6.36,6.36,0,0,1,1.24-.09v.09c-.19.26-.36.55-.57.81s-.6.63-.91.94a4.69,4.69,0,0,1-.47.42,1.86,1.86,0,0,1-.42.22c-.19.05-.39,0-.56.09a3.06,3.06,0,0,0-.51.26,5.93,5.93,0,0,0-.62.47c.32,0,.64-.05,1-.1a1.62,1.62,0,0,0,1.33-.83,4.89,4.89,0,0,1,.44-.47c.16-.16.35-.29.51-.44s.4-.49.6-.73l.21-.25v.07c0,.21,0,.41,0,.63a2.83,2.83,0,0,1-.19.8,2.27,2.27,0,0,1-.56.74A3.72,3.72,0,0,1,11,25,13.86,13.86,0,0,1,9,25.3c-.77.08-1.54.13-2.31.16s-1.39,0-2.08.05c-.37,0-.73,0-1.08,0a5.8,5.8,0,0,0-.74.07,1.09,1.09,0,0,0-.41.12.2.2,0,0,0-.09.19.34.34,0,0,0,.16.21A1.24,1.24,0,0,0,3,26.2c1.1.05,2.2,0,3.3,0s2.09,0,3.14,0c.83,0,1.66,0,2.49,0a4.65,4.65,0,0,0,.74,0,1.71,1.71,0,0,0,.56-.2,1.76,1.76,0,0,0,.57-.34,10.17,10.17,0,0,0,.62-.81,5.48,5.48,0,0,0,.43-.74,4.57,4.57,0,0,0,.35-.7c.08-.22.11-.44.19-.66a1.63,1.63,0,0,1,.15-.44,1.14,1.14,0,0,1,.3-.32,1.52,1.52,0,0,1,.35-.26l.31-.13.32-.09c0,.49,0,1-.06,1.47a11.37,11.37,0,0,1-.27,1.29c-.08.3-.21.58-.29.88a1.78,1.78,0,0,0-.05.47,1.19,1.19,0,0,0,.06.37.38.38,0,0,0,.12.18.19.19,0,0,0,.15,0c1.53,0,3.05,0,4.57,0,.61,0,1.22,0,1.81,0,.38,0,.74.14,1.11.2l.41,0a1,1,0,0,0-.1-.34.93.93,0,0,0-.35-.33c-.07-.05-.17,0-.25-.07a3.11,3.11,0,0,0-.38-.25,2.83,2.83,0,0,0-.78-.14c-.43,0-.86,0-1.3,0-.62,0-1.23.12-1.85.14a5.78,5.78,0,0,1-.83-.05.85.85,0,0,1-.41-.15A.73.73,0,0,1,18,25a2.72,2.72,0,0,1,0-.64,2.37,2.37,0,0,1,.07-.64,10.34,10.34,0,0,1,.36-1.07l.25-.72c.51.25,1,.47,1.51.74s1,.54,1.48.84.88.56,1.31.86a14.55,14.55,0,0,1,1.45,1.17,10.11,10.11,0,0,1,1.12,1.33,15.85,15.85,0,0,1,1,1.67A10.72,10.72,0,0,1,27.11,30c.08.22.13.43.19.65a10,10,0,0,0-.68-.78,3.86,3.86,0,0,0-.6-.54L25.75,29a2.24,2.24,0,0,0-.09-.45,2.6,2.6,0,0,0-.3-.68,3.19,3.19,0,0,0-.46-.57,2.83,2.83,0,0,0-.56-.42,2.52,2.52,0,0,0-.59-.24,4,4,0,0,0-1.17-.16l-19.74.1h0c-.28,0-.54,0-.82-.05a2.91,2.91,0,0,1-.63-.21,2,2,0,0,1-.52-.31,1.86,1.86,0,0,1-.4-.48,1.35,1.35,0,0,1-.1-.5,1.53,1.53,0,0,1,.08-.6.88.88,0,0,1,.37-.37A1,1,0,0,1,1.36,24a.85.85,0,0,1,.51.22.57.57,0,0,1,.11.44,1,1,0,0,1-.16.41s-.12,0-.15.06-.06.14,0,.18.11.06.17,0a.92.92,0,0,0,.34-.24,1,1,0,0,0,.14-.46.73.73,0,0,0-.07-.35A.86.86,0,0,0,2,23.86a1.09,1.09,0,0,0-.45-.21,1.32,1.32,0,0,0-.56,0,1.15,1.15,0,0,0-.5.23,1.09,1.09,0,0,0-.38.42A1.55,1.55,0,0,0,0,25a1.33,1.33,0,0,0,.09.55,1.64,1.64,0,0,0,.28.54,2.42,2.42,0,0,0,.56.5,2.33,2.33,0,0,0,.68.21,3.49,3.49,0,0,0,.65.06c.3,0,.61,0,1,0l19.38.06a3.88,3.88,0,0,1,1.06.15,3.11,3.11,0,0,1,.64.3,1.57,1.57,0,0,1,.41.32,2.06,2.06,0,0,1,.34.51,1.81,1.81,0,0,1,.16.42L25,28.49A10,10,0,0,0,23.93,28a6.45,6.45,0,0,0-1-.32,10.54,10.54,0,0,0-1.35-.22,9,9,0,0,0-1.16,0,10.78,10.78,0,0,0-1.39.18,9.69,9.69,0,0,0-1.3.38,1,1,0,0,1-.1-.11,2.47,2.47,0,0,0-.59-.53,2.28,2.28,0,0,0-1-.31,5.6,5.6,0,0,0-1.32.35,3.32,3.32,0,0,1,.64.05c.25.09.44.28.68.39.77.37.69.2,1.43.17a.52.52,0,0,1,.18,0c-.67.27-1.3.61-2,.91L15,29.2a5.49,5.49,0,0,0-1-.6,2.23,2.23,0,0,0-.68-.09,3.57,3.57,0,0,1-.47,0,1.41,1.41,0,0,1-.38-.09,3.18,3.18,0,0,0,.48.4,1.86,1.86,0,0,0,.64.33,1.35,1.35,0,0,0,.49,0,3.88,3.88,0,0,1,.48,0,1.75,1.75,0,0,1,.38.09l-.21.09c-.56.28-1.08.59-1.62.86-.24.11-.46.23-.7.33a2.13,2.13,0,0,1-.25,0,4.31,4.31,0,0,1-.88,0,6.82,6.82,0,0,1-1.08-.27,2.77,2.77,0,0,1-.46-.22c-.09-.07-.2-.13-.3-.2v0a2,2,0,0,0-.31-.55,1.71,1.71,0,0,0-.7-.5,5,5,0,0,0-1.09-.07,2.18,2.18,0,0,1,.47.21,4.83,4.83,0,0,1,.42.47c.49.47.47.33,1,.49a.46.46,0,0,1,.14.07,1.19,1.19,0,0,0,.28.27,4.24,4.24,0,0,0,.77.3,5,5,0,0,0,1,.25l.2,0-.48.13a7.73,7.73,0,0,1-1.26.31,19.06,19.06,0,0,1-2.26.15c-.55,0-1.11,0-1.66,0-.18,0-.35-.05-.52-.07l-1-.19c.28.11.53.27.81.35l-.68.15c-.29.06-.58.1-.86.17a1.53,1.53,0,0,0-.38.12c-.21.15-.4.36-.6.52l-.56.39a1.36,1.36,0,0,1,.27,0h.28a3.9,3.9,0,0,0,.58,0A2.16,2.16,0,0,0,4,32.46a2.54,2.54,0,0,0,.34-.32,2.64,2.64,0,0,1,.51-.43c.19-.1.42-.12.63-.21l0,0c.44.08.89.08,1.33.12s.74,0,1.13,0,.69,0,1-.07l.85-.08c.26,0,.53-.08.81-.14s.66-.16,1-.27.92-.32,1.36-.51l.18-.09a6.08,6.08,0,0,0-.33.61,7.83,7.83,0,0,0-.37,1,6,6,0,0,0-.15.85,2.88,2.88,0,0,0,0,.72,2.06,2.06,0,0,0,.11.61,4.83,4.83,0,0,0,.44.67,8.18,8.18,0,0,1-.32-.82,3,3,0,0,1-.08-.8,5.06,5.06,0,0,1,.13-.94,6,6,0,0,1,.33-.93,3.59,3.59,0,0,1,.4-.81,3.11,3.11,0,0,1,.47-.49l.32-.18,1.35-.65a2.22,2.22,0,0,1,.38-.18,9,9,0,0,0-.6,1.25,3.47,3.47,0,0,0-.08.79,3.38,3.38,0,0,1,0,.55,3.31,3.31,0,0,1-.22.47,4.84,4.84,0,0,0,.57-.63,2.24,2.24,0,0,0,.37-.78,1.76,1.76,0,0,0,0-.56,4.7,4.7,0,0,1-.06-.51,3.38,3.38,0,0,1,.14-.63c.32-.16.65-.31,1-.46a5.74,5.74,0,0,1,.69-.26c.43-.14.86-.29,1.28-.41a10.08,10.08,0,0,1,1-.21,7.88,7.88,0,0,1,1.19,0h.05a2.5,2.5,0,0,0-.53.23,3,3,0,0,0-.69.68,3.84,3.84,0,0,0-.48,1,3.47,3.47,0,0,0-.16,1.07,5.65,5.65,0,0,0,.13,1.16c0,.13,0,.25.07.37s-.22.42-.35.62-.23.35-.33.54a4,4,0,0,0-.16.52h0c-.17,0-.35,0-.51,0,0-.21,0-.46.1-.68s.14-.3.19-.46a1.14,1.14,0,0,0,.14-.5.65.65,0,0,0-.21-.41,2,2,0,0,0-.46-.34,1.61,1.61,0,0,0-1.27,0,1.47,1.47,0,0,0-.44.31,1.8,1.8,0,0,0-.29.46,1.36,1.36,0,0,0-.09.52,6.81,6.81,0,0,0,.19.92c.11.49.24,1,.32,1.46q0,.15,0,.27a4.59,4.59,0,0,1-.51-.1c-.24,0-.41-.22-.64-.26-.76-.16-.67,0-1.35.09a2.1,2.1,0,0,1-.35,0l.2.11a3.91,3.91,0,0,0,.63.28,5.26,5.26,0,0,0,2-.08,4.93,4.93,0,0,1,0,.55c0,.2,0,.4,0,.6a1.48,1.48,0,0,0,.1.36.93.93,0,0,0,.29.27,2,2,0,0,0,.49.17c.28,0,.58.06.86.1a2.32,2.32,0,0,0,.53,0c.31,0,.61-.09.92-.15.53-.11,1.06-.26,1.6-.38s1-.26,1.57-.37,1.22-.23,1.82-.32c.85-.1,1.7-.13,2.47-.15-.07.22-.13.44-.18.67a1.81,1.81,0,0,0-.28-.33,1,1,0,0,0-.43-.19,2.25,2.25,0,0,0-.58,0c-.12,0-.26,0-.32.11a3,3,0,0,0-.43.85,2.7,2.7,0,0,0-.19.84c0,.08.09.16.16.21s.37.17.56.27c-.19.07-.39.14-.58.23-.36.18-.68.4-1,.59-.28,0-.55,0-.82,0a5,5,0,0,0-.94.14c-.28.06-.54.21-.82.26a4.09,4.09,0,0,1-.7,0l.64.35-.48.48a4.5,4.5,0,0,1,.51-.2c.11,0,.23,0,.35,0a4.88,4.88,0,0,0,.85-.15,4.31,4.31,0,0,0,.91-.33,4.54,4.54,0,0,0,.66-.45,4.7,4.7,0,0,0,.75,0,5,5,0,0,0,1.07-.31.59.59,0,0,0-.06.14c-.32.54-.63,1.08-1,1.58a4.1,4.1,0,0,1-.51.51,3,3,0,0,1,.49-.13c.12,0,.27.1.34,0a11.11,11.11,0,0,0,1.08-1.73l.37-.67a3.43,3.43,0,0,0,.79-.68l0,0,.16.07c-.07.13-.15.25-.23.37s-.43.47-.59.74a1.43,1.43,0,0,0-.16.56,2.34,2.34,0,0,0,0,.7.71.71,0,0,0,.24.45.85.85,0,0,0,.56.13A3.17,3.17,0,0,0,28,41a2.31,2.31,0,0,1,.37,0c.2,0,.42.12.62.06a2.83,2.83,0,0,0,.8-.52,5.72,5.72,0,0,0,.47.76c.08.1.24,0,.35,0a4.5,4.5,0,0,1,.48.16,4.79,4.79,0,0,1-.48-.53c-.34-.52-.62-1.08-.91-1.63a4,4,0,0,0-.24-.46l.33.25c.16.11.32.22.49.32a2.05,2.05,0,0,0,.41.16c.2.05.4.07.61.11l.29.06a3.73,3.73,0,0,0,.44.45,2.76,2.76,0,0,0,.61.33c.24.1.48.17.73.26s.45.15.68.2l.48.08L34,40.6l.34-.1.35-.13-.72-.13-.73-.19c-.32-.08-.64-.18-1-.27l-.74-.26a7.21,7.21,0,0,0-.66-.56c-.22-.16-.47-.28-.7-.43l.09,0a1.31,1.31,0,0,0,.45-.24,1.2,1.2,0,0,0,.32-.46.72.72,0,0,0,0-.48,1,1,0,0,0-.24-.45,1.8,1.8,0,0,0-.54-.26,6.07,6.07,0,0,1-.55-.3.66.66,0,0,0-.48,0,2.22,2.22,0,0,0-.62.43c-.06-.21-.1-.42-.15-.64a57.81,57.81,0,0,1,7,1.2,7.8,7.8,0,0,0,3-.14c.9-.45.62-.75.82-1.59.12-.48.28-1,.42-1.45a6.09,6.09,0,0,0,.33-.9,1.35,1.35,0,0,0,.07-.7,1.62,1.62,0,0,0-1.48-1.17,1.27,1.27,0,0,0-1.41,1.24c0,.21.13,1.19.16,1.46a12.36,12.36,0,0,1-2.82-.39c-.51-.13-1-.27-1.54-.38s-1.19-.19-1.79-.27-1.08-.14-1.62-.18-.95,0-1.39-.05a2.38,2.38,0,0,1,0-.38,2.91,2.91,0,0,1,.25-.95,4.76,4.76,0,0,1,.66-1.05,6.05,6.05,0,0,1,.78-.82c.08-.08.17-.14.24-.22,0,.12.05.23.08.34a2,2,0,0,0,.26.55,1.8,1.8,0,0,0,.44.43,1.52,1.52,0,0,0,.5.23A1.86,1.86,0,0,0,32,31a2.22,2.22,0,0,0,.63-.07,1.75,1.75,0,0,0,.43-.22,1.61,1.61,0,0,0,.35-.34,1.17,1.17,0,0,0,.2-.44,1.3,1.3,0,0,0,0-.62.9.9,0,0,0-.22-.42,1.1,1.1,0,0,0-.36-.29,1.13,1.13,0,0,0-.5-.11.74.74,0,0,0-.38.12.79.79,0,0,0-.25.29c-.06.07-.12.17-.07.24s.17.07.25,0,.13-.15.22-.19a.81.81,0,0,1,.36-.08.71.71,0,0,1,.37.12.65.65,0,0,1,.21.28.85.85,0,0,1,0,.42.89.89,0,0,1-.15.45,1.11,1.11,0,0,1-.42.35,1.26,1.26,0,0,1-.54.13,1.77,1.77,0,0,1-.63-.13,1.67,1.67,0,0,1-.52-.36,1.37,1.37,0,0,1-.34-.55,1.48,1.48,0,0,1-.07-.63l.33-.23A6,6,0,0,1,32,28.24a8.4,8.4,0,0,1,1.41-.39h.06a4.56,4.56,0,0,1,.6.18,1.48,1.48,0,0,1,.3.21,2.9,2.9,0,0,1,.36.53,2,2,0,0,1,.13.54,1.63,1.63,0,0,1,0,.49c0,.12-.1.24-.11.37a2.17,2.17,0,0,0,0,.62,8.47,8.47,0,0,0,.32,1,5.06,5.06,0,0,1,0-.68c0-.19.14-.35.18-.53a1,1,0,0,0,.05-.46,3.75,3.75,0,0,0-.2-.65,5,5,0,0,0-.33-.79,2.23,2.23,0,0,0-.46-.6,2.15,2.15,0,0,0-.49-.28l.37,0a4,4,0,0,1,.52.18,3,3,0,0,1,.73.48,3.28,3.28,0,0,1,.52.79,3.94,3.94,0,0,1,.27.82,3.61,3.61,0,0,1,.06.87,6.3,6.3,0,0,1-.18,1.22s0,0,0,.05l-.63.12a2.62,2.62,0,0,0-.54.12,2.76,2.76,0,0,0-.5.28,3.58,3.58,0,0,0-.29.26,4.28,4.28,0,0,0,.81-.08,1.22,1.22,0,0,0,.46-.22c.12-.09.19-.22.31-.29a1.48,1.48,0,0,1,.36-.1c-.11.33-.26.65-.38,1a4.74,4.74,0,0,0,.43-.6,1.7,1.7,0,0,0,.09-.24.76.76,0,0,1,.06.18,2.42,2.42,0,0,0,0,.66c.08.18.27.27.42.41l.38.34a3.89,3.89,0,0,0-.18-.58c-.1-.19-.24-.35-.33-.54s-.24-.41-.35-.62.05-.24.07-.37a5.65,5.65,0,0,0,.13-1.16,3.47,3.47,0,0,0-.16-1.07,3.84,3.84,0,0,0-.48-1,2.83,2.83,0,0,0-.7-.68,2.22,2.22,0,0,0-.52-.23h.06a7.75,7.75,0,0,1,1.18,0,10.08,10.08,0,0,1,1,.21c.42.12.85.27,1.28.41a5.74,5.74,0,0,1,.69.26c.34.15.67.3,1,.46a3.38,3.38,0,0,1,.14.63,4.7,4.7,0,0,1-.06.51,1.76,1.76,0,0,0,0,.56,2.24,2.24,0,0,0,.37.78,4.84,4.84,0,0,0,.57.63,2.42,2.42,0,0,1-.21-.47,2.55,2.55,0,0,1,0-.55,3.47,3.47,0,0,0-.08-.79A9,9,0,0,0,40,29.1a2.64,2.64,0,0,1,.38.18l1.35.65.32.18a3.11,3.11,0,0,1,.47.49,4.11,4.11,0,0,1,.41.81,7.28,7.28,0,0,1,.32.93,5.06,5.06,0,0,1,.13.94,3,3,0,0,1-.08.8,8.18,8.18,0,0,1-.32.82,4.83,4.83,0,0,0,.44-.67,2.06,2.06,0,0,0,.11-.61,2.47,2.47,0,0,0,0-.72,4.86,4.86,0,0,0-.14-.85,7.83,7.83,0,0,0-.37-1,6.08,6.08,0,0,0-.33-.61l.18.09c.44.19.9.36,1.36.51s.65.19,1,.27.55.09.81.14l.85.08c.35,0,.7.06,1,.07a8.57,8.57,0,0,0,2-.15,1.92,1.92,0,0,0,.35-.18,4.17,4.17,0,0,1-.49.08c-.55,0-1,.07-1.58.07a20.74,20.74,0,0,1-2.23-.19,13.32,13.32,0,0,1-1.76-.44c-.49-.2-1-.39-1.43-.62-.84-.41-1.63-.85-2.48-1.23a16.61,16.61,0,0,0-3.38-1.33,10.78,10.78,0,0,0-1.39-.18,9,9,0,0,0-1.16,0,10.54,10.54,0,0,0-1.35.22,6.45,6.45,0,0,0-1,.32,10,10,0,0,0-1.05.48l-.22.15a1.81,1.81,0,0,1,.16-.42,2.06,2.06,0,0,1,.34-.51,1.57,1.57,0,0,1,.41-.32,3.29,3.29,0,0,1,.63-.3,4,4,0,0,1,1.07-.15l19.38-.06a9.39,9.39,0,0,0,.95,0,3.31,3.31,0,0,0,.64-.06,2.4,2.4,0,0,0,.69-.21,2.42,2.42,0,0,0,.56-.5,1.64,1.64,0,0,0,.28-.54,1.33,1.33,0,0,0,.09-.55,1.55,1.55,0,0,0-.12-.68A1,1,0,0,0,55.34,23.88ZM39.78,20.06a2.76,2.76,0,0,0,.28-.39.44.44,0,0,0,0-.3,1.43,1.43,0,0,0-.19-.37,1.32,1.32,0,0,0,.33.08c.1,0,.2-.08.3-.08a.42.42,0,0,1,.3.06c.11.07.14.21.22.31a4.55,4.55,0,0,1,.49.58.93.93,0,0,1,.05.1l-.27.13c-.41.19-.84.36-1.27.51-.24.09-.49.15-.73.23Zm-.72,1.26c.32-.09.64-.19,1-.31s.86-.33,1.27-.53l.38-.19a1.44,1.44,0,0,1,.09.4c0,.15,0,.29,0,.44-.92,0-1.87.17-2.79.29A.93.93,0,0,0,39.06,21.32ZM22.59,40c-.24.09-.51.07-.75.14s-.43.14-.64.21c.06-.08.13-.16.19-.25l-.3-.21a3.81,3.81,0,0,0,.59,0c.24-.07.46-.2.69-.25a5.16,5.16,0,0,1,1.1,0A3.86,3.86,0,0,1,22.59,40Zm10.19.14c.23.06.46.07.7.13l.79.15a3.18,3.18,0,0,1-.33.11,2.29,2.29,0,0,1-.37,0l.56.34c-.17,0-.34-.05-.5-.09s-.4-.15-.59-.23a3.28,3.28,0,0,1-.52-.2,1.36,1.36,0,0,1-.39-.25,2.26,2.26,0,0,1-.25-.29C32.17,39.89,32.47,40,32.78,40.11ZM22.17,16.58a.89.89,0,0,1,.09.26.78.78,0,0,1,0,.34,1.33,1.33,0,0,1,0,.19Zm0,1.15c.08,0,.15,0,.21-.07a.57.57,0,0,0,.22-.19,1.46,1.46,0,0,0,.18-.38,3.08,3.08,0,0,0,0-.6c0-.07-.05-.13-.05-.2s0-.24,0-.36a3.24,3.24,0,0,0-.39-.6,1.31,1.31,0,0,0-.2-.21v-4h.09l0,0h1.58v0H24l.22.1a2.13,2.13,0,0,1,.41.28c0-.13,0-.25,0-.38h.66l.48.14a.34.34,0,0,1,0-.14h7.88v8.59a2.54,2.54,0,0,1-1.36,2.6L27.8,24.9l-4.32-2.83a2.77,2.77,0,0,1-1.31-2.38Zm-.92-4.37a.69.69,0,0,1,.07-.29c.08-.12.22-.18.32-.29s.09-.17.17-.22a.25.25,0,0,1,.15-.05v2.41l-.11-.13c-.13-.15-.2-.35-.33-.51s-.24-.2-.33-.31-.07-.12-.06-.17S21.22,13.51,21.25,13.36Zm5.52,14.88a14.35,14.35,0,0,0-1.11-1.68,12.08,12.08,0,0,0-.93-1.18.8.8,0,0,1,0-.31c0-.13.18-.2.23-.32a1.7,1.7,0,0,0,.11-.43,1.29,1.29,0,0,0,0-.48,3.67,3.67,0,0,0-.31-.63c0,.12,0,.25,0,.37a2.27,2.27,0,0,1-.05.35,2.38,2.38,0,0,0-.15.45,1.2,1.2,0,0,0,0,.5,1.66,1.66,0,0,0,.11.38l-.1-.09a10.72,10.72,0,0,0-1.43-1.08c-.49-.33-1-.64-1.51-.95s-.95-.57-1.44-.82-.95-.48-1.43-.72c.11-.29.2-.59.3-.87a9.52,9.52,0,0,0,.23-1,7.06,7.06,0,0,0,.11-.91,3.21,3.21,0,0,1,0-.62,2.13,2.13,0,0,1,.25-.5c.16-.37.32-.75.46-1.14s.18-.57.27-.84.12-.37.17-.54c.31.14.62.28.92.44a1.23,1.23,0,0,1,.4.31,2.83,2.83,0,0,1,.14.35v3.63a3.1,3.1,0,0,0,.42,1.36,3.2,3.2,0,0,0,1.08,1.05l4.32,2.82,4.77-2.84a2.42,2.42,0,0,0,.91-.85,2.92,2.92,0,0,0,.34-1.54V15.32a3.3,3.3,0,0,0,.29.87,7,7,0,0,0,1,1.4,2.09,2.09,0,0,0,.56.47c.09.05.22,0,.31.05.37.21.67.56,1.06.75a2.6,2.6,0,0,1,.73.08c.14,0,.22-.16.35-.2s.18-.07.26,0a2.1,2.1,0,0,1,.39.7,1,1,0,0,1,0,.51,6.7,6.7,0,0,1-.34,1.16c-.81.29-2.29.89-2.87,1.19s-1,.53-1.5.82a15.56,15.56,0,0,0-1.47.95,10.44,10.44,0,0,0-1.4,1.08l-.09.09c0-.12.08-.25.11-.38a1.4,1.4,0,0,0,0-.5c0-.16-.12-.3-.15-.45a1.51,1.51,0,0,1-.06-.35c0-.12,0-.25,0-.37a6.11,6.11,0,0,0-.31.63,1.29,1.29,0,0,0,0,.48,1.36,1.36,0,0,0,.11.43c.05.12.22.19.23.32a.8.8,0,0,1,0,.31,12.08,12.08,0,0,0-.93,1.18A15.74,15.74,0,0,0,29,28.24c-.2.36-.38.72-.54,1.09a.59.59,0,0,1-.18-.13,2.23,2.23,0,0,1-.27-.26c.11-.12.2-.25.3-.38a5.35,5.35,0,0,0,.47-.67,3.85,3.85,0,0,0,.31-.69c.08-.24.11-.5.19-.74s.16-.33.19-.51a2,2,0,0,0,0-.73,6,6,0,0,0-.25-.82,3.09,3.09,0,0,0-.23.44,2.54,2.54,0,0,0-.1.55,1.28,1.28,0,0,0,0,.39c0,.16.07.31.09.47a3.25,3.25,0,0,1,0,.33A2.75,2.75,0,0,1,29,27a1.85,1.85,0,0,1-.12.4,2.43,2.43,0,0,1-.22.46,5.57,5.57,0,0,1-.53.72c-.08.09-.14.18-.22.26a2.65,2.65,0,0,1-.21-.26,5.63,5.63,0,0,1-.54-.72,2.43,2.43,0,0,1-.22-.46,1.85,1.85,0,0,1-.12-.4,2.75,2.75,0,0,1,0-.41,3.25,3.25,0,0,1,0-.33c0-.16.08-.31.1-.47a2.41,2.41,0,0,0-.11-.94,4.51,4.51,0,0,0-.22-.44,4.88,4.88,0,0,0-.26.82,2.24,2.24,0,0,0,0,.73,5.27,5.27,0,0,0,.19.51c.08.24.11.5.19.74a3.9,3.9,0,0,0,.32.69,3.85,3.85,0,0,0,.47.67,3.57,3.57,0,0,0,.3.38l-.27.26a.8.8,0,0,1-.19.13C27.16,29,27,28.6,26.77,28.24ZM19.06,33.6c.15-.14.34-.23.42-.41a2.08,2.08,0,0,0,0-.66.76.76,0,0,1,.06-.18,1.7,1.7,0,0,0,.09.24,4.74,4.74,0,0,0,.43.6c-.12-.32-.27-.64-.37-1a1.54,1.54,0,0,1,.35.1c.11.07.19.2.31.29a1.22,1.22,0,0,0,.46.22,4.28,4.28,0,0,0,.81.08,3.58,3.58,0,0,0-.29-.26,2.76,2.76,0,0,0-.5-.28,2.62,2.62,0,0,0-.54-.12l-.63-.12s0,0,0-.05a6.3,6.3,0,0,1-.18-1.22,3.17,3.17,0,0,1,.07-.87,3.4,3.4,0,0,1,.26-.82,3.28,3.28,0,0,1,.52-.79,3,3,0,0,1,.73-.48,4,4,0,0,1,.52-.18l.37,0a2,2,0,0,0-.49.28,2.46,2.46,0,0,0-.46.6,5,5,0,0,0-.33.79,3.75,3.75,0,0,0-.2.65,1,1,0,0,0,.05.46c0,.18.15.34.18.53a5.06,5.06,0,0,1,.05.68,8.47,8.47,0,0,0,.32-1,1.86,1.86,0,0,0,0-.62c0-.13-.09-.25-.11-.37a1.63,1.63,0,0,1,0-.49,2.5,2.5,0,0,1,.13-.54,2.9,2.9,0,0,1,.36-.53,1.48,1.48,0,0,1,.3-.21,4.56,4.56,0,0,1,.6-.18h.06a8.78,8.78,0,0,1,1.42.39,6.22,6.22,0,0,1,1.1.54l.33.23a1.48,1.48,0,0,1-.07.63,1.37,1.37,0,0,1-.34.55,1.67,1.67,0,0,1-.52.36,1.77,1.77,0,0,1-.63.13,1.26,1.26,0,0,1-.54-.13,1.11,1.11,0,0,1-.42-.35.89.89,0,0,1-.15-.45.85.85,0,0,1,0-.42.65.65,0,0,1,.21-.28.71.71,0,0,1,.37-.12.81.81,0,0,1,.36.08c.09,0,.13.16.22.19s.21.05.25,0,0-.17-.07-.24a.71.71,0,0,0-.25-.29.74.74,0,0,0-.38-.12,1.1,1.1,0,0,0-.5.11,1.21,1.21,0,0,0-.36.29.9.9,0,0,0-.22.42,1.3,1.3,0,0,0,0,.62,1.17,1.17,0,0,0,.2.44,1.61,1.61,0,0,0,.35.34,1.75,1.75,0,0,0,.43.22,2.22,2.22,0,0,0,.63.07,1.86,1.86,0,0,0,.57-.11,1.52,1.52,0,0,0,.5-.23,1.8,1.8,0,0,0,.44-.43,2,2,0,0,0,.26-.55c0-.11.05-.22.08-.34.07.08.16.14.24.22a6.74,6.74,0,0,1,.78.82,4.76,4.76,0,0,1,.66,1.05,2.91,2.91,0,0,1,.25.95,2.17,2.17,0,0,1,0,.36c-.47,0-1,0-1.47,0s-1.09.06-1.64.12-1.21.13-1.8.22-1.05.21-1.57.31-1.07.24-1.6.34c-.28.05-.55.08-.83.11A2.61,2.61,0,0,0,19.06,33.6Zm-2.94-.85a1.36,1.36,0,0,1,.07-.53,1.21,1.21,0,0,1,.31-.48,1.38,1.38,0,0,1,.63-.17,1.2,1.2,0,0,1,.5.05,1.29,1.29,0,0,1,.54.26.65.65,0,0,1,.13.43.68.68,0,0,1-.09.53c-.1.13-.3.13-.45.2a4.86,4.86,0,0,1,0-.54c0-.16,0-.32.06-.48a1.65,1.65,0,0,0-.48-.14,1.11,1.11,0,0,0-.55.2.43.43,0,0,0-.19.31,3.71,3.71,0,0,0,.07.74c0,.15,0,.31.06.46a1.39,1.39,0,0,1-.46-.36A1,1,0,0,1,16.12,32.75Zm1.08.38a1.05,1.05,0,0,0,.34.08,3.59,3.59,0,0,0,.46-.05c0,.25,0,.5-.05.74-.2,0-.4,0-.61-.07a3.57,3.57,0,0,1-.38-.14c0-.25,0-.48-.08-.73A2.48,2.48,0,0,0,17.2,33.13Zm-.32-.65a.63.63,0,0,1,.23-.36c.11-.07.26,0,.4,0,0,.29,0,.58-.07.88a1.07,1.07,0,0,1-.46-.14A.4.4,0,0,1,16.88,32.48Zm9.6,4.24a2.87,2.87,0,0,1,.31.29,4.54,4.54,0,0,1-.23.65q-.07.18-.15.33a2.17,2.17,0,0,1-.78-.12c-.16-.08-.32,0-.35-.19a1,1,0,0,1,.21-.64,1.64,1.64,0,0,1,.62-.26C26.19,36.75,26.42,36.67,26.48,36.72Zm-1.22,2.42a2.3,2.3,0,0,1-.57.11c-.16,0-.33,0-.5,0l.71-.35a4.92,4.92,0,0,1,.59-.18c.13,0,.26.12.38.18C25.66,39,25.47,39.08,25.26,39.14Zm1.55-.72a2.2,2.2,0,0,1-.26.15,1,1,0,0,1-1-.14l-.42-.21c-.09-.06-.23-.09-.27-.2a.84.84,0,0,1,0-.44A2.18,2.18,0,0,1,25.1,37a1.15,1.15,0,0,1,.28-.4,1.08,1.08,0,0,1,.49-.21.61.61,0,0,1,.35,0c.07,0,.1.13.16.18a3.31,3.31,0,0,0-.78.2,1,1,0,0,0-.4.44.89.89,0,0,0,0,.43.3.3,0,0,0,.09.24c.08.06.21,0,.32.08s.39.18.58.27a1.87,1.87,0,0,0,1-.23A3.22,3.22,0,0,1,26.81,38.42ZM27.2,38a1.57,1.57,0,0,0-.33,0l0-.07c.06-.18.13-.38.18-.58.1.11.18.21.28.31Zm-.05-.82c.08-.34.16-.69.25-1h.72c.06.32.11.65.18,1-.12.13-.22.26-.33.39a.48.48,0,0,0-.17,0,2.44,2.44,0,0,0-.26.06Zm.88,1c.15-.12.31-.2.45-.33l0,.09c0,.1.07.21.11.32Zm.69.32c.08.2.18.39.27.59l-.16-.09a4.14,4.14,0,0,1-.48-.34,1.57,1.57,0,0,1-.21-.24l.45,0Zm-.56.24a5.52,5.52,0,0,0,.43.53c.12.14.28.23.35.4a.61.61,0,0,1,0,.42.4.4,0,0,1-.3.22,5.51,5.51,0,0,1-.69-.06c-.15,0-.3.11-.45.11a1,1,0,0,1-.54,0c-.08-.05-.05-.18,0-.27a6.56,6.56,0,0,1,.3-.67,4,4,0,0,1,.42-.94.32.32,0,0,1,.33,0C28.09,38.39,28.09,38.56,28.16,38.67Zm-.58-.7s-.07,0-.08-.08a.29.29,0,0,1,0-.18.19.19,0,0,1,.13-.07.54.54,0,0,1,.18,0A1.19,1.19,0,0,1,27.58,38Zm-.95,1.57a3.07,3.07,0,0,1,.17-.31c.11-.16.23-.31.33-.47l.33-.46a.71.71,0,0,1,0,.14c-.06.15-.12.29-.19.43s-.17.29-.23.43-.11.32-.16.46a2.1,2.1,0,0,1-.15.3c0-.07-.14-.13-.15-.22A.63.63,0,0,1,26.63,39.54Zm2.55,1.13a.29.29,0,0,1-.14.15,1,1,0,0,1-.28.07c-.11,0-.23,0-.33,0h-.3a1.46,1.46,0,0,0-.22,0l-.27.06-.36,0a1,1,0,0,1-.3,0,.38.38,0,0,1-.17-.08,1.28,1.28,0,0,1-.15-.25,2.45,2.45,0,0,1,0-.39,2.89,2.89,0,0,0,.44.18.73.73,0,0,0,.33,0c.13,0,.26-.09.4-.11h.27l.36,0a2.54,2.54,0,0,0,.29,0,.24.24,0,0,0,.2,0,1.77,1.77,0,0,0,.24-.17,1.87,1.87,0,0,1,.07.22A.53.53,0,0,1,29.18,40.67Zm0-.7c-.05,0-.11,0-.15.05a1.62,1.62,0,0,0,0-.22,1.46,1.46,0,0,0-.07-.3,1.89,1.89,0,0,0-.11-.25c-.05,0-.11-.08-.14-.14a1.58,1.58,0,0,1-.15-.24l.31.22a1.18,1.18,0,0,1,.13.18,1.92,1.92,0,0,1,.14.29.53.53,0,0,1,.08.23A.34.34,0,0,1,29.2,40Zm.33.21a.58.58,0,0,1,.09.28s-.16.08-.14.17-.1,0-.12,0,0-.17,0-.26-.06-.2-.08-.3.07,0,.1,0A.49.49,0,0,1,29.53,40.18Zm.94-1.28a5.5,5.5,0,0,1,.5.34c.08.08.15.17.23.26a2.33,2.33,0,0,1-.59-.08,2.37,2.37,0,0,1-.6-.29c-.19-.14-.36-.31-.54-.45a.77.77,0,0,1,.29,0,1.66,1.66,0,0,1,.38.11A2.49,2.49,0,0,1,30.47,38.9ZM30.61,37c.08.08.2.16.23.26a1,1,0,0,1,0,.52.87.87,0,0,1-.2.35,1.8,1.8,0,0,1-.39.27,1.41,1.41,0,0,1-.31.08,2.42,2.42,0,0,1-.47.06,5.52,5.52,0,0,1-.68-.09c0-.07-.06-.15-.1-.23a2,2,0,0,0,.48.13,2.29,2.29,0,0,0,.59,0,1.5,1.5,0,0,0,.43-.1.71.71,0,0,0,.31-.26,1,1,0,0,0,.08-.45,1,1,0,0,0-.06-.29,3.2,3.2,0,0,0-.17-.43C30.43,36.84,30.53,36.89,30.61,37Zm-.53-.25a.77.77,0,0,1,.27.48,1.08,1.08,0,0,1,0,.59.73.73,0,0,1-.37.32,1.71,1.71,0,0,1-.59.11h-.28c-.1-.2-.18-.4-.26-.59a2,2,0,0,1-.07-.23,3.39,3.39,0,0,1,.23-.34,1.23,1.23,0,0,1,.54-.39A.65.65,0,0,1,30.08,36.72ZM28.55,37a5.35,5.35,0,0,1,.5-.45,1,1,0,0,1,.33-.17,1.42,1.42,0,0,1,.36,0,3.43,3.43,0,0,0-.44.19,1.61,1.61,0,0,0-.36.33,3.47,3.47,0,0,0-.3.37,3.29,3.29,0,0,1-.33.41,3.32,3.32,0,0,1-.5.33,2.85,2.85,0,0,1,.48-.63A2.26,2.26,0,0,1,28.55,37Zm10.11-5.44a1.22,1.22,0,0,1,1.06.8,1,1,0,0,1-.07.78,1.12,1.12,0,0,1-.82.62c.06-.37.3-.73.33-1.08s-.41-.49-.61-.51a1,1,0,0,0-.46,0,3.51,3.51,0,0,0-.07.66c0,.17,0,.24,0,.41-.41-.11-.58-.21-.57-.8A1,1,0,0,1,38.66,31.59Zm-.43,1.77c0-.32.07-.65.11-1,.12,0,.28,0,.37.06a.54.54,0,0,1,.14.41.62.62,0,0,1-.16.36A.7.7,0,0,1,38.23,33.36Zm.32.17-.07.41a3.8,3.8,0,0,1-.88.12c0-.24-.11-.48-.11-.73C37.7,33.44,38.42,33.67,38.55,33.53Zm-8.24-.4c.85.08,1.71.22,2.55.38s1.81.39,2.75.61a5.93,5.93,0,0,0,3.79-.3c-.06.24-.15.73-.2,1a13.54,13.54,0,0,1-.47,1.76.68.68,0,0,1-.34.35,2.44,2.44,0,0,1-.88.16,4.94,4.94,0,0,1-1.15,0,22.89,22.89,0,0,1-3.1-.5c-.59-.15-1.21-.25-1.82-.37S30.2,36,29.58,36s-1.31-.07-1.81-.11-1.16,0-1.82,0-1.25.12-1.87.21-1.23.24-1.82.36-1.08.27-1.62.39-1.1.26-1.66.34a5.55,5.55,0,0,1-1.08.07,2.35,2.35,0,0,1-.87-.2.6.6,0,0,1-.3-.36,1.64,1.64,0,0,1-.08-.54c0-.32-.09-.64-.12-1l-.09-.81c-.05-.25-.09-.51-.14-.75a2.07,2.07,0,0,0,.45.27,2,2,0,0,0,.57.17,3.71,3.71,0,0,0,.94.1A14.51,14.51,0,0,0,20,33.9c.95-.18,1.89-.42,2.84-.57A24.83,24.83,0,0,1,25.43,33c.83,0,1.66,0,2.43,0S29.47,33.06,30.31,33.13ZM28.19,30a11.23,11.23,0,0,0-.32,1.53A11.23,11.23,0,0,0,27.55,30a2.58,2.58,0,0,0-.14-.39c.11-.11.22-.23.31-.34l.15-.17.15.17c.1.11.2.23.31.34C28.28,29.71,28.23,29.83,28.19,30Z"/><path class="cls-1" d="M8,13.59a.31.31,0,1,0,.3.31A.31.31,0,0,0,8,13.59Z"/><path class="cls-1" d="M48.73,22.4c.83-.29,1.17-.34,1.48-1.31a1.27,1.27,0,0,1,.47-.66,2.56,2.56,0,0,0-1.15.67C49.23,21.5,49.31,21.89,48.73,22.4Z"/><path class="cls-1" d="M52.46,25.63a.3.3,0,0,0,0-.6A.3.3,0,0,0,52.46,25.63Z"/><path class="cls-1" d="M7.16,13.36a.31.31,0,0,0,.31-.31.31.31,0,0,0-.62,0A.31.31,0,0,0,7.16,13.36Z"/><path class="cls-1" d="M5.83,15.93a2.13,2.13,0,0,0,.62.27,3.64,3.64,0,0,0,.74,0c-.17-.11-.34-.21-.51-.33a4.58,4.58,0,0,0-.59-.51,1.86,1.86,0,0,0-.73-.17,3.41,3.41,0,0,0-.71.06c.2.1.42.16.63.28S5.64,15.81,5.83,15.93Z"/><path class="cls-1" d="M7.14,11.77a2.18,2.18,0,0,0,.18.65,3.85,3.85,0,0,0,.45.59c0-.21-.06-.41-.07-.61a3.51,3.51,0,0,0,0-.79,2,2,0,0,0-.32-.67,6.14,6.14,0,0,0-.5-.52c0,.23.14.45.18.67S7.1,11.54,7.14,11.77Z"/><path class="cls-1" d="M6.29,12.66a.3.3,0,0,0,.3-.31.31.31,0,1,0-.61,0A.31.31,0,0,0,6.29,12.66Z"/><path class="cls-1" d="M50,15.21c-.38.32-.76.34-1.12.62s-.64.72-.94,1C48.82,16.58,49.86,16.22,50,15.21Z"/><path class="cls-1" d="M7.11,14.21a.31.31,0,1,0,0-.62.31.31,0,1,0,0,.62Z"/><path class="cls-1" d="M48.86,15.34c.19-.12.32-.42.51-.54a5.12,5.12,0,0,1,.62-.31c-1.16-.05-1.14.21-1.87.82-.16.14-.43.27-.6.39A2.14,2.14,0,0,0,48.86,15.34Z"/><path class="cls-1" d="M6.62,14.85a2.18,2.18,0,0,0,.53.43,3.64,3.64,0,0,0,.71.22,3.67,3.67,0,0,1-.4-.47A4.83,4.83,0,0,0,7,14.39,1.78,1.78,0,0,0,6.37,14a5.4,5.4,0,0,0-.72-.13,5.66,5.66,0,0,1,.54.43C6.36,14.5,6.47,14.7,6.62,14.85Z"/><path class="cls-1" d="M48.27,13.75a.3.3,0,0,0-.3.31C48,15,49.16,13.75,48.27,13.75Z"/><path class="cls-1" d="M6.33,13a.31.31,0,1,0,.3.31A.3.3,0,0,0,6.33,13Z"/><path class="cls-1" d="M52.3,24.21a.3.3,0,0,0,0,.59A.3.3,0,1,0,52.3,24.21Z"/><path class="cls-1" d="M36.22,20.2a2.38,2.38,0,0,0-.5-1.57,4.29,4.29,0,0,1-.1,1.14,3.76,3.76,0,0,0,.29,1.35A5.24,5.24,0,0,0,36.22,20.2Z"/><path class="cls-1" d="M35.21,22.27a.3.3,0,0,0,0-.59A.3.3,0,1,0,35.21,22.27Z"/><path class="cls-1" d="M10.29,20.06c.2,0,.4.08.59.05a1.61,1.61,0,0,0,.47-.24l.85-.47a4.34,4.34,0,0,0-.87-.12,1.66,1.66,0,0,0-.7.29,8,8,0,0,0-.69.62A2.48,2.48,0,0,1,10.29,20.06Z"/><path class="cls-1" d="M35.08,21a.3.3,0,0,0,0-.6A.3.3,0,0,0,35.08,21Z"/><path class="cls-1" d="M36.44,21.54a.3.3,0,0,0,0-.6A.3.3,0,0,0,36.44,21.54Z"/><path class="cls-1" d="M48.81,23.23c-.4,0-.41.6,0,.61A.31.31,0,1,0,48.81,23.23Z"/><path class="cls-1" d="M49,24.76c.41,0,.42-.6,0-.63A.32.32,0,0,0,49,24.76Z"/><path class="cls-1" d="M9.27,18.23a.31.31,0,1,0-.31.31A.31.31,0,0,0,9.27,18.23Z"/><path class="cls-1" d="M48.11,24.47c.4,0,.41-.6,0-.63A.32.32,0,1,0,48.11,24.47Z"/><path class="cls-1" d="M10.86,18.78a.31.31,0,1,0-.31.31A.31.31,0,0,0,10.86,18.78Z"/><path class="cls-1" d="M21.15,18.79c0,.23,0,.44-.1.66s-.15.28-.2.44a.69.69,0,0,0-.07.3c0,.36.08.73.11,1.09a5.93,5.93,0,0,0,.46-.86,1.88,1.88,0,0,0,.06-.78A6.89,6.89,0,0,0,21.15,18.79Z"/><path class="cls-1" d="M20.89,21.65a.3.3,0,0,0-.3.3.3.3,0,1,0,.59,0A.3.3,0,0,0,20.89,21.65Z"/><path class="cls-1" d="M20.16,21.24a.31.31,0,0,0-.3.3.3.3,0,0,0,.3.3.29.29,0,0,0,.3-.3A.3.3,0,0,0,20.16,21.24Z"/><path class="cls-1" d="M34.48,21.74a.3.3,0,0,0,0-.6A.3.3,0,0,0,34.48,21.74Z"/><path class="cls-1" d="M43.26,23.11a.3.3,0,0,0,0-.6A.3.3,0,0,0,43.26,23.11Z"/><path class="cls-1" d="M45.25,23c-.42,0-.43.6,0,.62A.31.31,0,0,0,45.25,23Z"/><path class="cls-1" d="M44.17,22c-.41,0-.41.61,0,.63S44.58,22,44.17,22Z"/><path class="cls-1" d="M44.12,23c-.4,0-.41.59,0,.62S44.53,23,44.12,23Z"/><path class="cls-1" d="M41.81,34.87a.31.31,0,1,0,0,.61A.31.31,0,0,0,41.81,34.87Z"/><path class="cls-1" d="M39.83,23.71a.3.3,0,1,0,0-.59A.3.3,0,0,0,39.83,23.71Z"/><path class="cls-1" d="M22.45,11.7c.05.05,0,.19.08.2s0-.14.06-.19,0,.06.06.06.06,0,0-.06-.05-.07-.07-.11a1.31,1.31,0,0,1,0-.15s0-.08,0-.12h-.09s0,.08,0,.12a1.15,1.15,0,0,1-.06.17s-.05.05-.06.08,0,.07,0,.07S22.43,11.68,22.45,11.7Z"/><path class="cls-1" d="M22.63,14.68s0-.08,0-.13h-.11s0,.1,0,.14l-.06.2s-.07.06-.08.09,0,.08,0,.08.06-.1.09-.07,0,.22.1.22,0-.15.06-.21,0,.06.07.06a.06.06,0,0,0,.06-.06c0-.05-.07-.08-.1-.14A.52.52,0,0,1,22.63,14.68Z"/><path class="cls-1" d="M44.72,23.83c.4.58.52,1.18,1.21,1.33a3.27,3.27,0,0,1,.78.38c-.21-.17-.4-.7-.62-.85a1.83,1.83,0,0,0-.46-.28c-.25-.1-.58-.56-1-.75Z"/><path class="cls-1" d="M22.63,18.55s0-.1,0-.14h-.11s0,.1,0,.14l-.06.19s-.07.06-.08.11,0,.06,0,.07.06-.09.09-.07,0,.21.1.22,0-.16.06-.21,0,.06.07.06a.06.06,0,0,0,.06-.06c0-.06-.07-.09-.1-.14A.51.51,0,0,1,22.63,18.55Z"/><path class="cls-1" d="M24.25,21.53l3.55,2.31,3.92-2.32a2.11,2.11,0,0,0,.74-.71,2.3,2.3,0,0,0,.28-1.26V12H23v7.58a2.35,2.35,0,0,0,.36,1.11A2.71,2.71,0,0,0,24.25,21.53Zm5.16-9.35h3.16V17.5H29.41Zm0,5.43h3.16v1.88a2.24,2.24,0,0,1-.27,1.22,2,2,0,0,1-.72.68l-2.17,1.29Zm-3.18-5.43H29.3V17.5H26.23Zm0,5.43H29.3v5.13l-1.5.9-1.57-1Zm-.11-.11H23.18V15.6h1v1.87h1.07V15.6h.89V15L26,15v.19l-.17-.13-.16.13V15h-.18l.15-.15-.1-.16.19,0,.1-.19.11.19.18,0-.09.17.11.11v-.65h-.89V12.18h.91Zm-2.8-2.8.21,0,.09-.19.1.19.19,0-.08.17L24,15l-.17,0v.19l-.17-.13-.17.13V15h-.18l.15-.15Zm1.36-1.36-.16.11v-.19l-.18,0,.15-.14-.1-.17.19,0,.1-.2.11.19.18,0-.09.18.15.13-.18,0v.19Zm0,1.2a.43.43,0,0,1,0,.07c0,.05,0,.09,0,.14a.3.3,0,0,1,0,.1s0,.05-.06.05a.12.12,0,0,1-.08,0s-.08,0-.09-.05,0-.07,0-.1,0-.09,0-.13a.18.18,0,0,1-.07-.1l0,0h.06s0,0,.06,0,.06,0,.1,0a.11.11,0,0,1,.08,0s0,0,.05,0l0,0s0,0,.06,0S24.72,14.53,24.72,14.54Zm-.35.41.09,0h.1a.24.24,0,0,0,.1-.05.91.91,0,0,0,.07-.14h.14l.17,0,.16,0s.05,0,.05,0,0,0-.06,0-.09,0-.15,0H24.9l-.09,0a.14.14,0,0,1,0-.06.22.22,0,0,1,0-.08l.06,0H25l.1,0s.06,0,.09,0h.06s.06,0,.07,0,0,.06,0,.07,0,0-.06,0h-.11s0,0-.08,0l-.09,0s0,0,0,0,0,0,0,0h.37l.07,0a.08.08,0,0,1,0,.07s0,.05-.06.08.12.12.17.2a.08.08,0,0,1,0,.08,1,1,0,0,1-.15.14s0,0-.05.05a.13.13,0,0,1-.09,0,.05.05,0,0,1,0-.05s0,0,0,0h.07a.19.19,0,0,0,.06-.07.1.1,0,0,0,0-.07s0,0,0,0l-.19-.12a.32.32,0,0,1,0,.13.13.13,0,0,1,0,.07s-.09,0-.14.07,0,0,0,.06h-.11s0,0,0,0,0,0,0-.05h.12l.12-.08A.11.11,0,0,0,25,15a.13.13,0,0,0-.06-.07,1.58,1.58,0,0,0-.23.11h-.05a.29.29,0,0,1-.14,0l-.13.13a.58.58,0,0,1-.14.17.15.15,0,0,1-.1,0,.11.11,0,0,1-.08,0s0,0,0,0,0,0,.08,0,.06,0,.07,0Zm0,1.67.15-.14-.1-.17.19,0,.1-.2.11.19.18,0-.09.17.15.14-.18,0v.2l-.17-.13-.16.13v-.2Zm-.2-4.44v2.13h-1V12.18Zm-1,5.43h2.94v4.93L24.38,21.4a2.74,2.74,0,0,1-.86-.83,2.45,2.45,0,0,1-.34-1.08Z"/><path class="cls-1" d="M47.64,23.06a.31.31,0,1,0,0,.62C48,23.7,48.05,23.09,47.64,23.06Z"/><path class="cls-1" d="M48.47,30.13c-.48.25-.62.64-1.18.88.74,0,1.09,0,1.59-.61a2.65,2.65,0,0,1,.71-.66A8.73,8.73,0,0,0,48.47,30.13Z"/><path class="cls-1" d="M42.76,29.87a.28.28,0,0,0,0-.55A.28.28,0,0,0,42.76,29.87Z"/><path class="cls-1" d="M11.83,22.83a.31.31,0,1,0-.31.31A.31.31,0,0,0,11.83,22.83Z"/><path class="cls-1" d="M7.27,30.75A2.08,2.08,0,0,0,7.9,31a4.79,4.79,0,0,0,.66,0,2.15,2.15,0,0,1-.38-.15,3.14,3.14,0,0,1-.32-.31,2.79,2.79,0,0,0-.49-.42,8.73,8.73,0,0,0-1.12-.39,3.46,3.46,0,0,1,.46.32A2.78,2.78,0,0,1,7,30.4,1.46,1.46,0,0,0,7.27,30.75Z"/><path class="cls-1" d="M40,28.57A.27.27,0,1,0,40,28,.27.27,0,1,0,40,28.57Z"/><path class="cls-1" d="M10.83,28.71a.28.28,0,1,0,.28.27A.28.28,0,0,0,10.83,28.71Z"/><path class="cls-1" d="M6.32,30.85a.28.28,0,1,0,.28-.28A.28.28,0,0,0,6.32,30.85Z"/><path class="cls-1" d="M49.24,31.13a.28.28,0,0,0,0-.56A.28.28,0,0,0,49.24,31.13Z"/><path class="cls-1" d="M10.83,29.94a.27.27,0,0,0,.28.28.26.26,0,0,0,.26-.28.25.25,0,0,0-.26-.26A.26.26,0,0,0,10.83,29.94Z"/><path class="cls-1" d="M38.9,23.59a.3.3,0,0,0,0-.6A.3.3,0,0,0,38.9,23.59Z"/><path class="cls-1" d="M49.92,30.63a.28.28,0,0,0,0-.55A.28.28,0,1,0,49.92,30.63Z"/><path class="cls-1" d="M45.71,30.54a.27.27,0,0,0,0,.54A.27.27,0,1,0,45.71,30.54Z"/><path class="cls-1" d="M43,28.47a3.57,3.57,0,0,1-.47,0,2.19,2.19,0,0,0-.68.09,4.26,4.26,0,0,0-.93.56,3.15,3.15,0,0,1,.85-.05,1.35,1.35,0,0,0,.49,0,1.86,1.86,0,0,0,.64-.33,3.18,3.18,0,0,0,.48-.4A1.41,1.41,0,0,1,43,28.47Z"/><path class="cls-1" d="M46.5,29.8a4,4,0,0,1-.47,0,1.2,1.2,0,0,0-.5,0,1.92,1.92,0,0,0-.64.35,3.94,3.94,0,0,0-.49.51,2.14,2.14,0,0,1,.4-.2,3.75,3.75,0,0,1,.47-.05A3,3,0,0,0,46,30.3a8.58,8.58,0,0,0,1.14-.65A3.76,3.76,0,0,1,46.5,29.8Z"/><path class="cls-1" d="M41.18,27.41a5,5,0,0,0-1.26-.26,2,2,0,0,0-1.68.75l-.05.06.48-.09a3.4,3.4,0,0,0,1.18-.2c.24-.11.44-.12.69-.21A3.32,3.32,0,0,1,41.18,27.41Z"/><path class="cls-1" d="M6.57,24.58a.32.32,0,1,0,.63,0,.32.32,0,0,0-.63,0Z"/><path class="cls-1" d="M7.42,23.68a.31.31,0,0,0-.31-.32.33.33,0,0,0-.32.32.31.31,0,0,0,.32.31A.3.3,0,0,0,7.42,23.68Z"/><path class="cls-1" d="M8.29,23.89a.31.31,0,1,0,0-.62.31.31,0,1,0,0,.62Z"/><path class="cls-1" d="M11.75,28.87a.28.28,0,1,0,.28.28A.29.29,0,0,0,11.75,28.87Z"/><path class="cls-1" d="M10.7,23.75a.31.31,0,1,0-.31-.31A.31.31,0,0,0,10.7,23.75Z"/><path class="cls-1" d="M12.2,24.13a.31.31,0,1,0-.31.31A.31.31,0,0,0,12.2,24.13Z"/><path class="cls-1" d="M7.51,24.34a.32.32,0,1,0,.63,0,.32.32,0,0,0-.63,0Z"/><path class="cls-1" d="M12.14,30.28a.27.27,0,0,0,.27-.28.28.28,0,0,0-.27-.27.27.27,0,0,0-.27.27A.27.27,0,0,0,12.14,30.28Z"/><path class="cls-1" d="M15.87,28.28a.28.28,0,0,0-.56,0,.28.28,0,0,0,.56,0Z"/><path class="cls-1" d="M19.59,23.54a.31.31,0,0,0-.3.3.3.3,0,0,0,.6,0A.31.31,0,0,0,19.59,23.54Z"/><path class="cls-1" d="M20.69,24.22a.3.3,0,0,0,0-.59.3.3,0,1,0,0,.59Z"/><path class="cls-1" d="M20.11,23.41a.3.3,0,0,0,.3-.3.31.31,0,0,0-.3-.3.3.3,0,0,0-.3.3A.29.29,0,0,0,20.11,23.41Z"/><path class="cls-1" d="M39.34,22.17a.3.3,0,0,0,0,.6A.3.3,0,0,0,39.34,22.17Z"/><path class="cls-1" d="M48.94,32.68a12.12,12.12,0,0,0-1.1-.7,3,3,0,0,1,.61.89c.4.77.73.8,1.54,1C49.45,33.51,49.39,33.06,48.94,32.68Z"/><path class="cls-1" d="M51.85,31.23a.28.28,0,0,0,0-.56A.28.28,0,0,0,51.85,31.23Z"/><path class="cls-1" d="M52.55,29.88a.27.27,0,1,0,0,.54A.27.27,0,0,0,52.55,29.88Z"/><path class="cls-1" d="M52.42,31.88a1.68,1.68,0,0,0-.38-.12,3,3,0,0,0-.94,0,3.16,3.16,0,0,1,.44.38,1.64,1.64,0,0,0,.91.56,3.9,3.9,0,0,0,.58,0h.28a1.36,1.36,0,0,1,.27,0L53,32.4C52.82,32.24,52.63,32,52.42,31.88Z"/><path class="cls-1" d="M49.21,31.81a.28.28,0,0,0,0,.55A.28.28,0,1,0,49.21,31.81Z"/><path class="cls-1" d="M51.22,29.77c-.42.37-.47.81-1,1.19.76-.23,1.09-.28,1.46-1a2.8,2.8,0,0,1,.58-.85A8.2,8.2,0,0,0,51.22,29.77Z"/><path class="cls-1" d="M53,31.51A.28.28,0,0,0,53,31,.28.28,0,0,0,53,31.51Z"/><path class="cls-1" d="M25.13,22.49a.41.41,0,0,0,0-.11H25s0,.08,0,.12a1,1,0,0,1-.05.16s-.06.05-.07.09,0,.06,0,.06.06-.08.08-.06,0,.19.07.19,0-.13.07-.17,0,0,.06,0,.05,0,.05,0-.07-.08-.08-.12A1.24,1.24,0,0,1,25.13,22.49Z"/><path class="cls-1" d="M53.55,30.1a.27.27,0,1,0,0,.54A.27.27,0,0,0,53.55,30.1Z"/><path class="cls-1" d="M23.29,21.09s0-.09,0-.13,0,0-.05,0-.05,0-.05,0a.59.59,0,0,0,0,.14.55.55,0,0,1-.06.18s-.07.06-.08.11,0,.07,0,.07.06-.09.09-.07,0,.21.09.22,0-.16.07-.2,0,.05.08.05.05,0,0-.05-.07-.1-.09-.15A1,1,0,0,1,23.29,21.09Z"/><path class="cls-1" d="M46.77,17.34l0,0a.29.29,0,0,0,.17.06.31.31,0,1,0,0-.62.3.3,0,0,0-.27.44l.09-.05Z"/><path class="cls-1" d="M27.82,24.16a.34.34,0,0,0,0-.1h-.09s0,.08,0,.11a.6.6,0,0,1-.05.16s-.06.06-.07.1,0,.06,0,.06.05-.08.07-.06,0,.18.08.19,0-.13.06-.18,0,0,.06,0a.06.06,0,0,0,.05,0s-.07-.07-.08-.12A.75.75,0,0,1,27.82,24.16Z"/><path class="cls-1" d="M47,22.26a3.11,3.11,0,0,0,.69-.11,1.22,1.22,0,0,0,.43-.24,4.47,4.47,0,0,0,.45-.6c-.16.06-.31.14-.48.19a5.74,5.74,0,0,0-.9.18,5.71,5.71,0,0,0-.87.49l0,0A5,5,0,0,0,47,22.26Z"/><path class="cls-1" d="M44.16,32a.28.28,0,0,0,0,.55A.28.28,0,1,0,44.16,32Z"/><path class="cls-1" d="M44.13,33.91a.28.28,0,0,0,0,.56A.28.28,0,0,0,44.13,33.91Z"/><path class="cls-1" d="M43.11,36.39c.32.61.79.63,1.35.82a19.42,19.42,0,0,1-1.59-1.81A4.09,4.09,0,0,0,43.11,36.39Z"/><path class="cls-1" d="M42.6,37.28a.31.31,0,0,0,0,.62A.31.31,0,0,0,42.6,37.28Z"/><path class="cls-1" d="M45.21,32.79a.28.28,0,1,0,0-.55A.28.28,0,0,0,45.21,32.79Z"/><path class="cls-1" d="M42.58,36.93a.31.31,0,0,0,0-.61A.31.31,0,1,0,42.58,36.93Z"/><path class="cls-1" d="M43.79,31.16a.28.28,0,0,0,0,.56A.28.28,0,0,0,43.79,31.16Z"/><path class="cls-1" d="M44.77,31.42a.28.28,0,0,0,0,.55A.28.28,0,0,0,44.77,31.42Z"/><path class="cls-1" d="M45.58,34.57a2.65,2.65,0,0,0-.27-.62,10.53,10.53,0,0,0-.88-.89,3.06,3.06,0,0,1,.29.53c.06.13.05.29.1.43a1.21,1.21,0,0,0,.12.47,2,2,0,0,0,.49.51,4.3,4.3,0,0,0,.6.32,2.07,2.07,0,0,1-.28-.32A3.2,3.2,0,0,1,45.58,34.57Z"/><path class="cls-1" d="M43.66,35.41a.28.28,0,0,0,0-.56A.28.28,0,0,0,43.66,35.41Z"/><path class="cls-1" d="M44.57,34.79a.28.28,0,0,0,0,.56A.28.28,0,0,0,44.57,34.79Z"/><path class="cls-1" d="M32.67,21s0,.09,0,.14a1,1,0,0,1-.07.18s0,.06-.07.11,0,.07,0,.07.06-.09.09-.07,0,.21.1.22,0-.16.06-.2,0,.05.08.05a.06.06,0,0,0,0-.05c0-.07-.07-.1-.09-.15a.55.55,0,0,1,0-.17.57.57,0,0,0,0-.13s0,0-.05,0S32.68,20.94,32.67,21Z"/><path class="cls-1" d="M27.69,11.7c0,.05,0,.19.08.2s0-.14.06-.19,0,.06.06.06a.06.06,0,0,0,.05-.06s-.07-.07-.08-.11,0-.11,0-.15a.48.48,0,0,0,0-.12h-.09a.5.5,0,0,0,0,.12,1.09,1.09,0,0,1-.05.17s-.06.05-.07.08,0,.07,0,.07S27.67,11.68,27.69,11.7Z"/><path class="cls-1" d="M30.38,11.7c.05.05,0,.19.08.2s0-.14.06-.19,0,.06.06.06a.06.06,0,0,0,.05-.06s-.07-.07-.09-.11,0-.11,0-.15a.24.24,0,0,0,0-.12h-.09s0,.08,0,.12a1.09,1.09,0,0,1,0,.17s-.05.05-.06.08,0,.07,0,.07S30.35,11.68,30.38,11.7Z"/><path class="cls-1" d="M32.89,11.7c0,.05,0,.19.09.2s0-.14.05-.19,0,.06.06.06.06,0,0-.06-.06-.07-.08-.11a1.31,1.31,0,0,1,0-.15s0-.08,0-.12h-.09s0,.08,0,.12a1.15,1.15,0,0,1-.06.17s0,.05,0,.08,0,.07,0,.07S32.87,11.68,32.89,11.7Z"/><path class="cls-1" d="M30.51,22.49s0-.08,0-.11h-.09s0,.08,0,.12a1,1,0,0,1,0,.16s-.05.05-.06.09a0,0,0,0,0,0,.06s0-.08.07-.06,0,.19.08.19,0-.13.06-.17,0,0,.06,0a0,0,0,0,0,.05,0c0-.06-.07-.08-.09-.12Z"/><path class="cls-1" d="M40.43,22.36a.3.3,0,0,0,0,.6A.3.3,0,0,0,40.43,22.36Z"/><path class="cls-1" d="M33.07,14.55s0,.1,0,.14a1.59,1.59,0,0,1-.07.2s-.06.06-.08.09,0,.08,0,.08S33,15,33,15s0,.22.08.22,0-.15.08-.21,0,.06.07.06a.07.07,0,0,0,.06-.06c0-.05-.08-.08-.1-.14a1,1,0,0,1,0-.18.3.3,0,0,0,0-.13s0,0,0,0Z"/><path class="cls-1" d="M25,11.7c.05.05,0,.19.07.2s0-.14.07-.19,0,.06.06.06a.06.06,0,0,0,.05-.06s-.07-.07-.08-.11,0-.11,0-.15a.48.48,0,0,0,0-.12H25a.5.5,0,0,0,0,.12,1.09,1.09,0,0,1-.05.17s-.06.05-.07.08,0,.07,0,.07S25,11.68,25,11.7Z"/><path class="cls-1" d="M33.18,18.55a.33.33,0,0,0,0-.14s0,0,0,0h-.06s0,.1,0,.14a1.46,1.46,0,0,1-.07.19s-.06.06-.08.11,0,.06,0,.07.07-.09.1-.07,0,.21.08.22,0-.16.08-.21,0,.06.07.06a.06.06,0,0,0,.06-.06c0-.06-.08-.09-.1-.14A1,1,0,0,1,33.18,18.55Z"/><path class="cls-1" d="M59.89,38v-.17h.22a.83.83,0,0,0,.43-.09.51.51,0,0,0,.22-.24,2.16,2.16,0,0,0,.05-.61V32.65a1.86,1.86,0,0,0-.06-.62.48.48,0,0,0-.21-.22.89.89,0,0,0-.43-.09h-.22v-.18H62.8a4.66,4.66,0,0,1,1.87.32A2.77,2.77,0,0,1,66,33a3.51,3.51,0,0,1,.45,1.78,3.48,3.48,0,0,1-.22,1.26,3,3,0,0,1-.57,1,2.67,2.67,0,0,1-.81.6,4.15,4.15,0,0,1-1.11.35,5.07,5.07,0,0,1-.92.06Zm2.48-6.12V37a1.64,1.64,0,0,0,0,.5.27.27,0,0,0,.12.14.92.92,0,0,0,.38.07,1.44,1.44,0,0,0,1.22-.55,3.71,3.71,0,0,0,.57-2.28,4.34,4.34,0,0,0-.39-2,1.65,1.65,0,0,0-.8-.79A3.11,3.11,0,0,0,62.37,31.91Z"/><path class="cls-1" d="M71,35.63H68.51A2.23,2.23,0,0,0,69,37a1,1,0,0,0,.79.4.9.9,0,0,0,.53-.16,2.18,2.18,0,0,0,.5-.58l.16.11a2.78,2.78,0,0,1-.8,1,1.81,1.81,0,0,1-1,.31,1.7,1.7,0,0,1-1.51-.77,2.73,2.73,0,0,1-.41-1.53,2.54,2.54,0,0,1,.6-1.78,1.9,1.9,0,0,1,1.42-.67,1.53,1.53,0,0,1,1.18.56A2.47,2.47,0,0,1,71,35.63Zm-1.18-.32a4.19,4.19,0,0,0-.08-1.05.91.91,0,0,0-.26-.44.4.4,0,0,0-.27-.08.49.49,0,0,0-.41.24,2.15,2.15,0,0,0-.28,1.17v.16Z"/><path class="cls-1" d="M73.24,37.58v1.66a1.22,1.22,0,0,0,.06.47.28.28,0,0,0,.17.18,1.07,1.07,0,0,0,.45.06v.18H71.37V40a.61.61,0,0,0,.44-.17,1.07,1.07,0,0,0,.09-.57V34.49a1,1,0,0,0-.11-.6.55.55,0,0,0-.42-.15v-.18h1.87v.59a1.78,1.78,0,0,1,.48-.5,1.38,1.38,0,0,1,.76-.23,1.44,1.44,0,0,1,.9.32,1.87,1.87,0,0,1,.61.85,3.29,3.29,0,0,1,.21,1.18A3.56,3.56,0,0,1,76,37a1.82,1.82,0,0,1-.64.85,1.51,1.51,0,0,1-.92.3,1.53,1.53,0,0,1-.69-.17A2,2,0,0,1,73.24,37.58Zm0-.49a1.14,1.14,0,0,0,.88.59.49.49,0,0,0,.43-.27,3.31,3.31,0,0,0,.25-1.54,3.07,3.07,0,0,0-.28-1.58A.54.54,0,0,0,74,34c-.33,0-.59.23-.8.7Z"/><path class="cls-1" d="M79.33,37.37a2.38,2.38,0,0,1-1.47.72.86.86,0,0,1-.64-.25.82.82,0,0,1-.25-.63,1.22,1.22,0,0,1,.44-.92,8.53,8.53,0,0,1,1.92-1.09v-.44a2,2,0,0,0-.06-.64.51.51,0,0,0-.21-.23.57.57,0,0,0-.34-.1.81.81,0,0,0-.51.14.22.22,0,0,0-.13.2.46.46,0,0,0,.14.25.6.6,0,0,1,.18.39.52.52,0,0,1-.18.4.63.63,0,0,1-.45.17.76.76,0,0,1-.51-.18.58.58,0,0,1-.2-.43,1,1,0,0,1,.27-.66,1.72,1.72,0,0,1,.76-.48,3.16,3.16,0,0,1,1-.17,1.65,1.65,0,0,1,1,.27,1.28,1.28,0,0,1,.48.59,3.49,3.49,0,0,1,.07.92v1.74a2.64,2.64,0,0,0,0,.39.19.19,0,0,0,.08.11.15.15,0,0,0,.11,0c.08,0,.16-.06.25-.18l.14.12a1.6,1.6,0,0,1-.49.51,1.06,1.06,0,0,1-.58.16,1,1,0,0,1-.6-.17A.84.84,0,0,1,79.33,37.37Zm0-.35v-1.5a2.84,2.84,0,0,0-.87.73.91.91,0,0,0-.18.52.53.53,0,0,0,.16.39.42.42,0,0,0,.33.13A.92.92,0,0,0,79.33,37Z"/><path class="cls-1" d="M83.59,33.56v1a3.39,3.39,0,0,1,.78-.92,1.2,1.2,0,0,1,.65-.23.58.58,0,0,1,.43.17.62.62,0,0,1,.16.47.67.67,0,0,1-.16.49.47.47,0,0,1-.37.18.63.63,0,0,1-.44-.16l-.22-.18a.2.2,0,0,0-.11,0,.43.43,0,0,0-.27.1,1,1,0,0,0-.29.47,3.3,3.3,0,0,0-.16,1v1.3a1.23,1.23,0,0,0,0,.35.45.45,0,0,0,.17.19,1,1,0,0,0,.38.07V38H81.77v-.17a.55.55,0,0,0,.39-.16,1.48,1.48,0,0,0,.1-.72V34.51a2.34,2.34,0,0,0,0-.49.45.45,0,0,0-.14-.2.7.7,0,0,0-.32-.08v-.18Z"/><path class="cls-1" d="M88.06,31.92v1.64h1.06V34H88.06v2.76a2.46,2.46,0,0,0,0,.5.35.35,0,0,0,.13.18.27.27,0,0,0,.17.07c.21,0,.4-.15.59-.47l.14.11a1.31,1.31,0,0,1-1.26.91,1.11,1.11,0,0,1-.72-.23,1.08,1.08,0,0,1-.37-.53,3.85,3.85,0,0,1,0-.88V34h-.59v-.17a5.74,5.74,0,0,0,1-.89,5.34,5.34,0,0,0,.74-1Z"/><path class="cls-1" d="M91.54,33.56v.59a2.53,2.53,0,0,1,.68-.57,1.55,1.55,0,0,1,.68-.16,1.23,1.23,0,0,1,.73.21,1.27,1.27,0,0,1,.45.61,2.62,2.62,0,0,1,.73-.62,1.52,1.52,0,0,1,.74-.2,1.17,1.17,0,0,1,.73.22,1.05,1.05,0,0,1,.39.54,3.71,3.71,0,0,1,.11,1v1.84a1.38,1.38,0,0,0,.09.64.59.59,0,0,0,.39.16V38H95v-.17a.54.54,0,0,0,.4-.21,1.22,1.22,0,0,0,.09-.59V35.13a3.64,3.64,0,0,0,0-.76.47.47,0,0,0-.15-.24.41.41,0,0,0-.25-.08.72.72,0,0,0-.41.15,2.08,2.08,0,0,0-.43.45v2.41a1.4,1.4,0,0,0,.08.6.5.5,0,0,0,.42.2V38H92.34v-.17a.59.59,0,0,0,.29-.09.46.46,0,0,0,.15-.2,2.66,2.66,0,0,0,0-.51V35.13a3,3,0,0,0,0-.76.45.45,0,0,0-.16-.24.41.41,0,0,0-.24-.08.64.64,0,0,0-.35.1,1.91,1.91,0,0,0-.47.5v2.41a1.4,1.4,0,0,0,.09.62.48.48,0,0,0,.39.18V38H89.71v-.17a.56.56,0,0,0,.4-.18,1.23,1.23,0,0,0,.09-.62V34.53a1.26,1.26,0,0,0-.1-.63.51.51,0,0,0-.39-.16v-.18Z"/><path class="cls-1" d="M101.55,35.63H99.09A2.29,2.29,0,0,0,99.57,37a1,1,0,0,0,.79.4.87.87,0,0,0,.52-.16,1.88,1.88,0,0,0,.5-.58l.17.11a2.79,2.79,0,0,1-.81,1,1.76,1.76,0,0,1-1,.31,1.69,1.69,0,0,1-1.5-.77,2.65,2.65,0,0,1-.41-1.53,2.54,2.54,0,0,1,.6-1.78,1.88,1.88,0,0,1,1.42-.67A1.55,1.55,0,0,1,101,34,2.58,2.58,0,0,1,101.55,35.63Zm-1.18-.32a4.75,4.75,0,0,0-.08-1.05,1,1,0,0,0-.26-.44.4.4,0,0,0-.27-.08.48.48,0,0,0-.41.24,2.07,2.07,0,0,0-.28,1.17v.16Z"/><path class="cls-1" d="M103.9,33.56v.58a2.66,2.66,0,0,1,.67-.55,1.42,1.42,0,0,1,.67-.17,1.11,1.11,0,0,1,.73.25,1.13,1.13,0,0,1,.38.6,4.58,4.58,0,0,1,.08,1v1.75a1.36,1.36,0,0,0,.09.64.55.55,0,0,0,.39.16V38h-2.26v-.17a.45.45,0,0,0,.36-.21,1.37,1.37,0,0,0,.08-.59v-2a3.08,3.08,0,0,0,0-.7.42.42,0,0,0-.14-.22.4.4,0,0,0-.23-.08c-.27,0-.53.2-.77.59v2.4a1.32,1.32,0,0,0,.1.63.46.46,0,0,0,.34.17V38h-2.26v-.17a.56.56,0,0,0,.4-.18,1.23,1.23,0,0,0,.09-.62V34.53a1.26,1.26,0,0,0-.1-.63.51.51,0,0,0-.39-.16v-.18Z"/><path class="cls-1" d="M109.16,31.92v1.64h1.06V34h-1.06v2.76a2.46,2.46,0,0,0,0,.5.35.35,0,0,0,.13.18.27.27,0,0,0,.17.07c.2,0,.4-.15.59-.47l.14.11a1.31,1.31,0,0,1-1.26.91,1.12,1.12,0,0,1-1.1-.76,5,5,0,0,1,0-.88V34h-.59v-.17a6.12,6.12,0,0,0,1-.89,5.34,5.34,0,0,0,.74-1Z"/><path class="cls-1" d="M115.07,33.42a2,2,0,0,1,1.08.31,1.93,1.93,0,0,1,.77.85,2.9,2.9,0,0,1,.26,1.22,2.53,2.53,0,0,1-.49,1.59,1.88,1.88,0,0,1-1.61.78,1.84,1.84,0,0,1-1.55-.71,2.58,2.58,0,0,1-.55-1.64,2.68,2.68,0,0,1,.56-1.68A1.82,1.82,0,0,1,115.07,33.42Zm0,.34a.55.55,0,0,0-.42.19,1.19,1.19,0,0,0-.23.73,14.49,14.49,0,0,0-.06,1.51,6.94,6.94,0,0,0,.07,1,1,1,0,0,0,.22.52.55.55,0,0,0,.4.18.56.56,0,0,0,.36-.12.89.89,0,0,0,.25-.46,11.68,11.68,0,0,0,.09-1.84,4.51,4.51,0,0,0-.09-1.11.86.86,0,0,0-.27-.45A.53.53,0,0,0,115.09,33.76Z"/><path class="cls-1" d="M119.66,34v3.1a1.09,1.09,0,0,0,.1.57.67.67,0,0,0,.56.16V38h-2.63v-.17a1.08,1.08,0,0,0,.43-.07.33.33,0,0,0,.17-.18,1.54,1.54,0,0,0,0-.48V34h-.65v-.47h.65V33a1.49,1.49,0,0,1,.51-1.15,2,2,0,0,1,1.36-.45,1.41,1.41,0,0,1,.88.22.59.59,0,0,1,.28.48.52.52,0,0,1-.17.38.72.72,0,0,1-.47.15.62.62,0,0,1-.4-.12.38.38,0,0,1-.14-.29.77.77,0,0,1,0-.18.39.39,0,0,0,0-.15.21.21,0,0,0,0-.15.28.28,0,0,0-.19-.07.3.3,0,0,0-.23.11.55.55,0,0,0-.1.37v1.41h.66V34Z"/><path class="cls-1" d="M125.63,34.91v2a2.36,2.36,0,0,0,.05.62.47.47,0,0,0,.22.22.88.88,0,0,0,.43.1h.22V38h-3.4v-.17h.22a.94.94,0,0,0,.45-.1.43.43,0,0,0,.19-.23,1.79,1.79,0,0,0,.06-.61V32.65A1.86,1.86,0,0,0,124,32a.48.48,0,0,0-.21-.22.86.86,0,0,0-.43-.09h-.22v-.18h3.4v.18h-.22a.83.83,0,0,0-.45.1.46.46,0,0,0-.2.23,2.23,2.23,0,0,0-.05.6v1.84h2.29V32.65a2.36,2.36,0,0,0,0-.62.58.58,0,0,0-.22-.22.89.89,0,0,0-.43-.09H127v-.18h3.38v.18h-.21a.83.83,0,0,0-.45.1.51.51,0,0,0-.2.23,2.23,2.23,0,0,0-.05.6v4.27a2.36,2.36,0,0,0,.05.62.47.47,0,0,0,.22.22.88.88,0,0,0,.43.1h.21V38H127v-.17h.21a.94.94,0,0,0,.45-.1.57.57,0,0,0,.2-.23,2.27,2.27,0,0,0,0-.61v-2Z"/><path class="cls-1" d="M132.86,33.42a2,2,0,0,1,1.08.31,1.93,1.93,0,0,1,.77.85A2.9,2.9,0,0,1,135,35.8a2.53,2.53,0,0,1-.49,1.59,1.89,1.89,0,0,1-1.61.78,1.84,1.84,0,0,1-1.55-.71,2.58,2.58,0,0,1-.55-1.64,2.68,2.68,0,0,1,.56-1.68A1.82,1.82,0,0,1,132.86,33.42Zm0,.34a.55.55,0,0,0-.42.19,1.19,1.19,0,0,0-.23.73,14.49,14.49,0,0,0-.06,1.51,5.65,5.65,0,0,0,.07,1,.93.93,0,0,0,.22.52.55.55,0,0,0,.4.18.56.56,0,0,0,.36-.12.82.82,0,0,0,.24-.46,10.19,10.19,0,0,0,.1-1.84,4.51,4.51,0,0,0-.09-1.11.86.86,0,0,0-.27-.45A.53.53,0,0,0,132.88,33.76Z"/><path class="cls-1" d="M137.4,33.56v.59a2.69,2.69,0,0,1,.68-.57,1.59,1.59,0,0,1,.69-.16,1.18,1.18,0,0,1,.72.21,1.16,1.16,0,0,1,.45.61,2.64,2.64,0,0,1,.74-.62,1.49,1.49,0,0,1,.73-.2,1.18,1.18,0,0,1,.74.22,1.09,1.09,0,0,1,.38.54,3.36,3.36,0,0,1,.11,1v1.84a1.38,1.38,0,0,0,.09.64.65.65,0,0,0,.39.16V38h-2.31v-.17a.57.57,0,0,0,.41-.21,1.41,1.41,0,0,0,.08-.59V35.13a3.64,3.64,0,0,0-.05-.76.42.42,0,0,0-.15-.24.41.41,0,0,0-.24-.08.67.67,0,0,0-.41.15,1.7,1.7,0,0,0-.43.45v2.41a1.4,1.4,0,0,0,.08.6.48.48,0,0,0,.42.2V38H138.2v-.17a.59.59,0,0,0,.3-.09.43.43,0,0,0,.14-.2,1.86,1.86,0,0,0,0-.51V35.13a3.57,3.57,0,0,0-.05-.76.45.45,0,0,0-.16-.24.41.41,0,0,0-.24-.08.62.62,0,0,0-.35.1,2.1,2.1,0,0,0-.48.5v2.41a1.4,1.4,0,0,0,.09.62.52.52,0,0,0,.39.18V38h-2.3v-.17a.56.56,0,0,0,.4-.18,1.42,1.42,0,0,0,.08-.62V34.53a1.3,1.3,0,0,0-.09-.63.51.51,0,0,0-.39-.16v-.18Z"/><path class="cls-1" d="M147.41,35.63H145a2.35,2.35,0,0,0,.47,1.41,1,1,0,0,0,.8.4.89.89,0,0,0,.52-.16,2.18,2.18,0,0,0,.5-.58l.16.11a2.78,2.78,0,0,1-.8,1,1.76,1.76,0,0,1-1,.31,1.71,1.71,0,0,1-1.51-.77,2.73,2.73,0,0,1-.41-1.53,2.5,2.5,0,0,1,.61-1.78,1.86,1.86,0,0,1,1.42-.67,1.56,1.56,0,0,1,1.18.56A2.52,2.52,0,0,1,147.41,35.63Zm-1.17-.32a4.06,4.06,0,0,0-.09-1.05.84.84,0,0,0-.26-.44.38.38,0,0,0-.27-.08.46.46,0,0,0-.4.24,2.07,2.07,0,0,0-.28,1.17v.16Z"/><path class="cls-1" d="M154,36.19h-2.29l-.27.63a1.4,1.4,0,0,0-.14.52.45.45,0,0,0,.22.4,2,2,0,0,0,.64.12V38H150v-.17a1,1,0,0,0,.58-.29,4,4,0,0,0,.55-1l2.32-5.18h.09l2.34,5.32a3.53,3.53,0,0,0,.55,1,.8.8,0,0,0,.46.18V38h-3.14v-.17h.13a1,1,0,0,0,.53-.11.25.25,0,0,0,.11-.22.57.57,0,0,0,0-.18s-.05-.15-.14-.36Zm-.16-.36-1-2.23-1,2.23Z"/><path class="cls-1" d="M159.48,34v3.1a1.12,1.12,0,0,0,.09.57.7.7,0,0,0,.57.16V38H157.5v-.17a1,1,0,0,0,.43-.07.39.39,0,0,0,.18-.18,1.65,1.65,0,0,0,0-.48V34h-.65v-.47h.65V33a1.51,1.51,0,0,1,.5-1.15A2,2,0,0,1,160,31.4a1.39,1.39,0,0,1,.87.22.6.6,0,0,1,.29.48.49.49,0,0,1-.18.38.7.7,0,0,1-.47.15.57.57,0,0,1-.39-.12.4.4,0,0,1-.15-.29,1.05,1.05,0,0,1,0-.18.77.77,0,0,0,0-.15.18.18,0,0,0-.06-.15.25.25,0,0,0-.19-.07.3.3,0,0,0-.23.11.61.61,0,0,0-.09.37v1.41h.66V34Z"/><path class="cls-1" d="M162.93,34v3.1a1.12,1.12,0,0,0,.09.57.69.69,0,0,0,.57.16V38H161v-.17a1.08,1.08,0,0,0,.43-.07.33.33,0,0,0,.17-.18,1.54,1.54,0,0,0,0-.48V34H161v-.47h.65V33a1.48,1.48,0,0,1,.5-1.15,2,2,0,0,1,1.37-.45,1.39,1.39,0,0,1,.87.22.59.59,0,0,1,.28.48.48.48,0,0,1-.17.38.72.72,0,0,1-.47.15.62.62,0,0,1-.4-.12.42.42,0,0,1-.14-.29,1.05,1.05,0,0,1,0-.18.77.77,0,0,0,0-.15.18.18,0,0,0-.06-.15.25.25,0,0,0-.19-.07.3.3,0,0,0-.23.11.61.61,0,0,0-.09.37v1.41h.66V34Z"/><path class="cls-1" d="M166.61,37.37a2.34,2.34,0,0,1-1.47.72.85.85,0,0,1-.63-.25.83.83,0,0,1-.26-.63,1.26,1.26,0,0,1,.44-.92,9.05,9.05,0,0,1,1.92-1.09v-.44a2.5,2.5,0,0,0-.05-.64.51.51,0,0,0-.21-.23.6.6,0,0,0-.35-.1.85.85,0,0,0-.51.14.23.23,0,0,0-.12.2.43.43,0,0,0,.13.25.6.6,0,0,1,.18.39.51.51,0,0,1-.17.4.65.65,0,0,1-.46.17.71.71,0,0,1-.5-.18.56.56,0,0,1-.21-.43,1,1,0,0,1,.28-.66,1.66,1.66,0,0,1,.76-.48,3.1,3.1,0,0,1,1-.17,1.68,1.68,0,0,1,1,.27,1.28,1.28,0,0,1,.48.59,3.49,3.49,0,0,1,.07.92v1.74a2.64,2.64,0,0,0,0,.39.23.23,0,0,0,.07.11.15.15,0,0,0,.11,0c.09,0,.17-.06.26-.18l.14.12a1.6,1.6,0,0,1-.49.51,1.09,1.09,0,0,1-.59.16.94.94,0,0,1-.59-.17A.81.81,0,0,1,166.61,37.37Zm0-.35v-1.5a2.92,2.92,0,0,0-.86.73.92.92,0,0,0-.19.52.57.57,0,0,0,.16.39.42.42,0,0,0,.34.13A.9.9,0,0,0,166.61,37Z"/><path class="cls-1" d="M170.85,33.56V37.1a1,1,0,0,0,.11.61.56.56,0,0,0,.43.15V38H169v-.17a.58.58,0,0,0,.44-.17,1,1,0,0,0,.1-.59V34.49a1.07,1.07,0,0,0-.11-.6.59.59,0,0,0-.43-.15v-.18Zm-.67-2.17a.75.75,0,0,1,.74.74.67.67,0,0,1-.22.52.69.69,0,0,1-.52.22.71.71,0,0,1-.53-.22.7.7,0,0,1-.21-.52.72.72,0,0,1,.21-.52A.71.71,0,0,1,170.18,31.39Z"/><path class="cls-1" d="M173.81,33.56v1a3.39,3.39,0,0,1,.78-.92,1.2,1.2,0,0,1,.65-.23.58.58,0,0,1,.43.17.67.67,0,0,1,.16.47.67.67,0,0,1-.16.49.47.47,0,0,1-.37.18.63.63,0,0,1-.44-.16l-.22-.18a.23.23,0,0,0-.11,0,.41.41,0,0,0-.27.1,1,1,0,0,0-.29.47,3,3,0,0,0-.16,1v1.3a1.23,1.23,0,0,0,0,.35.45.45,0,0,0,.17.19,1,1,0,0,0,.38.07V38H172v-.17a.55.55,0,0,0,.39-.16,1.48,1.48,0,0,0,.1-.72V34.51a1.64,1.64,0,0,0,0-.49.37.37,0,0,0-.13-.2.74.74,0,0,0-.32-.08v-.18Z"/><path class="cls-1" d="M179.2,33.43l.07,1.53h-.16a2.4,2.4,0,0,0-.61-.93,1,1,0,0,0-.62-.25.45.45,0,0,0-.33.14.36.36,0,0,0-.14.3.43.43,0,0,0,.09.25,4.72,4.72,0,0,0,.86.67,3.4,3.4,0,0,1,.92.81,1.3,1.3,0,0,1,.23.74,1.47,1.47,0,0,1-.19.73,1.23,1.23,0,0,1-.53.55,1.45,1.45,0,0,1-.75.2,2.46,2.46,0,0,1-.85-.21l-.2-.05c-.11,0-.19.08-.26.24h-.16l-.08-1.61h.16a2.16,2.16,0,0,0,.6,1,1.13,1.13,0,0,0,.71.32.51.51,0,0,0,.37-.14.47.47,0,0,0,.15-.35.56.56,0,0,0-.15-.39,3.4,3.4,0,0,0-.64-.51,5,5,0,0,1-.94-.78,1.35,1.35,0,0,1-.32-.86,1.4,1.4,0,0,1,.36-.94,1.26,1.26,0,0,1,1-.42,1.49,1.49,0,0,1,.7.18.46.46,0,0,0,.21.07.26.26,0,0,0,.14,0,.89.89,0,0,0,.17-.21Z"/></svg>